<?xml version="1.0" encoding="UTF-8" standalone="no"?>
<svg
   xmlns:dc="http://purl.org/dc/elements/1.1/"
   xmlns:cc="http://creativecommons.org/ns#"
   xmlns:rdf="http://www.w3.org/1999/02/22-rdf-syntax-ns#"
   xmlns:svg="http://www.w3.org/2000/svg"
   xmlns="http://www.w3.org/2000/svg"
   xmlns:sodipodi="http://sodipodi.sourceforge.net/DTD/sodipodi-0.dtd"
   xmlns:inkscape="http://www.inkscape.org/namespaces/inkscape"
   version="1.1"
   viewBox="0 0 941.91779 313.9726"
   stroke-miterlimit="10"
   id="svg3144"
   inkscape:version="0.48.2 r9819"
   width="100%"
   height="100%"
   sodipodi:docname="TreeFam_workflow.svg"
   style="fill:none;stroke:none">
  <metadata
     id="metadata3263">
    <rdf:RDF>
      <cc:Work
         rdf:about="">
        <dc:format>image/svg+xml</dc:format>
        <dc:type
           rdf:resource="http://purl.org/dc/dcmitype/StillImage" />
        <dc:title></dc:title>
      </cc:Work>
    </rdf:RDF>
  </metadata>
  <defs
     id="defs3261">
    <clipPath
       clipPathUnits="userSpaceOnUse"
       id="clipPath3267">
      <rect
         style="fill:#0000ff;fill-rule:evenodd;stroke:#000000;stroke-width:1px;stroke-linecap:butt;stroke-linejoin:miter;stroke-opacity:1"
         id="rect3269"
         width="941.91779"
         height="313.9726"
         x="3.2876713"
         y="101.91781" />
    </clipPath>
  </defs>
  <sodipodi:namedview
     pagecolor="#ffffff"
     bordercolor="#666666"
     borderopacity="1"
     objecttolerance="10"
     gridtolerance="10"
     guidetolerance="10"
     inkscape:pageopacity="0"
     inkscape:pageshadow="2"
     inkscape:window-width="1417"
     inkscape:window-height="813"
     id="namedview3259"
     showgrid="false"
     fit-margin-top="0"
     fit-margin-left="0"
     fit-margin-right="0"
     fit-margin-bottom="0"
     inkscape:zoom="0.60833333"
     inkscape:cx="476.71233"
     inkscape:cy="55.890404"
     inkscape:window-x="1704"
     inkscape:window-y="205"
     inkscape:window-maximized="0"
     inkscape:current-layer="svg3144" />
  <clipPath
     id="p.0">
    <path
       d="M 0,0 960,0 960,720 0,720 0,0 z"
       clip-rule="nonzero"
       id="path3147"
       inkscape:connector-curvature="0" />
  </clipPath>
  <g
     clip-path="url(#clipPath3267)"
     id="g3149"
     transform="translate(-3.2876713,-101.91781)">
    <path
       d="m 0,0 960,0 0,720 -960,0 z"
       id="path3151"
       inkscape:connector-curvature="0"
       style="fill:#000000;fill-opacity:0;fill-rule:nonzero" />
    <path
       d="m 6.6430445,121.41732 0,0 c 0,6.8666 22.2659035,12.43307 49.7322845,12.43307 27.466385,0 49.732281,-5.56647 49.732281,-12.43307 l 0,94.28347 c 0,6.86659 -22.265896,12.43308 -49.732281,12.43308 -27.466381,0 -49.7322845,-5.56649 -49.7322845,-12.43308 z"
       id="path3153"
       inkscape:connector-curvature="0"
       style="fill:#cfe2f3;fill-rule:nonzero" />
    <path
       d="m 6.6430445,121.41732 0,0 c 0,-6.86659 22.2659035,-12.43307 49.7322845,-12.43307 27.466385,0 49.732281,5.56648 49.732281,12.43307 l 0,0 c 0,6.8666 -22.265896,12.43307 -49.732281,12.43307 -27.466381,0 -49.7322845,-5.56647 -49.7322845,-12.43307 z"
       id="path3155"
       inkscape:connector-curvature="0"
       style="fill:#e2edf7;fill-rule:nonzero" />
    <path
       d="m 106.10761,121.41732 0,0 c 0,6.8666 -22.2659,12.43307 -49.732285,12.43307 -27.466381,0 -49.732285,-5.56647 -49.732285,-12.43307 l 0,0 c 0,-6.86659 22.265903,-12.43307 49.732285,-12.43307 27.466385,0 49.732285,5.56648 49.732285,12.43307 l 0,94.28347 c 0,6.86659 -22.2659,12.43308 -49.732285,12.43308 -27.466381,0 -49.732285,-5.56649 -49.732285,-12.43308 l 0,-94.28347"
       id="path3157"
       inkscape:connector-curvature="0"
       style="fill:#000000;fill-opacity:0;fill-rule:nonzero" />
    <path
       stroke-miterlimit="8.0"
       d="m 106.10761,121.41732 0,0 c 0,6.8666 -22.2659,12.43307 -49.732285,12.43307 -27.466381,0 -49.732285,-5.56647 -49.732285,-12.43307 l 0,0 c 0,-6.86659 22.265903,-12.43307 49.732285,-12.43307 27.466385,0 49.732285,5.56648 49.732285,12.43307 l 0,94.28347 c 0,6.86659 -22.2659,12.43308 -49.732285,12.43308 -27.466381,0 -49.732285,-5.56649 -49.732285,-12.43308 l 0,-94.28347"
       id="path3159"
       inkscape:connector-curvature="0"
       style="stroke:#000000;stroke-width:2;stroke-linecap:butt;stroke-miterlimit:8" />
    <path
       d="m 33.980797,158.75996 0,1.28125 -3.812498,0 0,10.14062 -1.515625,0 0,-10.14062 -3.8125,0 0,-1.28125 9.140623,0 z m 5.15625,2.95312 q 0.04687,0 0.07813,0 0.04687,0 0.109375,0 l 0,1.4375 q -1.53125,0 -2.265625,0.8125 -0.71875,0.8125 -0.71875,2.51563 l 0,3.70312 -1.359375,0 0,-8.28125 1.28125,0 0,1.75 0.03125,0 q 0.46875,-0.98437 1.171875,-1.45312 0.703125,-0.48438 1.671875,-0.48438 z m 4.65625,0 q 1.78125,0 2.765625,1.28125 0.984375,1.28125 0.984375,3.29688 l 0,0.15625 -6.203125,0 0,0.10937 q 0,1.17188 0.6875,1.89063 0.6875,0.71875 1.890625,0.71875 0.90625,0 1.4375,-0.42188 0.546875,-0.42187 0.703125,-1.1875 l 1.34375,0 q -0.265625,1.375 -1.203125,2.10938 -0.921875,0.71875 -2.328125,0.71875 -1.296875,0 -2.203125,-0.59375 -0.90625,-0.59375 -1.34375,-1.64063 -0.421875,-1.0625 -0.421875,-2.15625 0,-1.82812 1.09375,-3.04687 1.109375,-1.23438 2.796875,-1.23438 z m -2.453125,3.53125 4.75,0 q -0.0625,-1 -0.734375,-1.65625 -0.65625,-0.67187 -1.65625,-0.67187 -0.9375,0 -1.609375,0.64062 -0.65625,0.625 -0.75,1.6875 z m 11.046875,-3.53125 q 1.78125,0 2.765625,1.28125 0.984375,1.28125 0.984375,3.29688 l 0,0.15625 -6.203125,0 0,0.10937 q 0,1.17188 0.6875,1.89063 0.6875,0.71875 1.890625,0.71875 0.90625,0 1.4375,-0.42188 0.546875,-0.42187 0.703125,-1.1875 l 1.34375,0 q -0.265625,1.375 -1.203125,2.10938 -0.921875,0.71875 -2.328125,0.71875 -1.296875,0 -2.203125,-0.59375 -0.90625,-0.59375 -1.34375,-1.64063 -0.421875,-1.0625 -0.421875,-2.15625 0,-1.82812 1.09375,-3.04687 1.109375,-1.23438 2.796875,-1.23438 z m -2.453125,3.53125 4.75,0 q -0.0625,-1 -0.734375,-1.65625 -0.65625,-0.67187 -1.65625,-0.67187 -0.9375,0 -1.609375,0.64062 -0.65625,0.625 -0.75,1.6875 z m 15.328125,-6.48437 0,1.28125 -5.984375,0 0,3.625 5.25,0 0,1.28125 -5.25,0 0,5.23437 -1.515625,0 0,-11.42187 7.5,0 z m 4.84375,2.95312 q 1.6875,0 2.390625,0.60938 0.71875,0.59375 0.71875,1.60937 0,4.29688 0,4.76563 0,0.46875 0.421875,0.46875 0.09375,0 0.203125,-0.0156 0.109375,-0.0312 0.21875,-0.0625 l 0,1.0625 q -0.1875,0.10938 -0.4375,0.17188 -0.25,0.0625 -0.53125,0.0625 -0.5625,0 -0.859375,-0.3125 -0.296875,-0.32813 -0.296875,-0.98438 -0.546875,0.64063 -1.28125,0.96875 -0.734375,0.32813 -1.640625,0.32813 -1.28125,0 -2.015625,-0.60938 -0.71875,-0.60937 -0.71875,-1.71875 0,-1.125 0.703125,-1.76562 0.71875,-0.65625 3.359375,-0.98438 0.890625,-0.125 1.203125,-0.34375 0.3125,-0.23437 0.3125,-0.6875 0,-0.6875 -0.4375,-1.01562 -0.4375,-0.34375 -1.40625,-0.34375 -1,0 -1.515625,0.39062 -0.5,0.375 -0.53125,1.17188 l -1.359375,0 q 0.0625,-1.375 0.96875,-2.0625 0.90625,-0.70313 2.53125,-0.70313 z m -2.390625,6.23438 q 0,0.57812 0.421875,0.90625 0.421875,0.3125 1.1875,0.3125 1.140625,0 1.828125,-0.5625 0.6875,-0.57813 0.6875,-1.28125 l 0,-1.42188 q -0.34375,0.25 -0.890625,0.34375 -0.546875,0.0781 -1.453125,0.20313 -0.90625,0.125 -1.34375,0.48437 -0.4375,0.35938 -0.4375,1.01563 z m 11.59375,-6.23438 q 0.90625,0 1.46875,0.375 0.578125,0.35938 0.796875,1.03125 0.421875,-0.65625 1.09375,-1.03125 0.6875,-0.375 1.515625,-0.375 1.390625,0 2.0625,0.64063 0.671875,0.625 0.671875,1.70312 l 0,6.125 -1.359375,0 0,-5.48437 q 0,-0.89063 -0.375,-1.32813 -0.375,-0.45312 -1.21875,-0.45312 -1.015625,0 -1.59375,0.59375 -0.5625,0.59375 -0.5625,1.46875 l 0,5.20312 -1.375,0 0,-5.48437 q 0,-0.89063 -0.375,-1.32813 -0.375,-0.45312 -1.171875,-0.45312 -0.640625,0 -1.140625,0.3125 -0.5,0.3125 -0.78125,0.85937 -0.28125,0.53125 -0.28125,0.90625 l 0,5.1875 -1.359375,0 0,-8.28125 1.28125,0 0,1.21875 0.03125,0 q 0.46875,-0.70312 1.125,-1.04687 0.671875,-0.35938 1.546875,-0.35938 z"
       id="path3161"
       inkscape:connector-curvature="0"
       style="fill:#000000;fill-rule:nonzero" />
    <path
       d="m 35.42611,178.93184 0,4.90625 6.015625,0 0,-4.90625 1.53125,0 0,11.42187 -1.53125,0 0,-5.23437 -6.015625,0 0,5.23437 -1.515625,0 0,-11.42187 1.515625,0 z m 12.148438,0 3.609375,9.59375 3.609375,-9.59375 2.078125,0 0,11.42187 -1.4375,0 0,-9.51562 -0.03125,0 -3.5625,9.51562 -1.296875,0 -3.578125,-9.51562 -0.03125,0 0,9.51562 -1.4375,0 0,-11.42187 2.078125,0 z m 13.9375,0 3.609374,9.59375 3.609375,-9.59375 2.078125,0 0,11.42187 -1.4375,0 0,-9.51562 -0.03125,0 -3.5625,9.51562 -1.296875,0 -3.578125,-9.51562 -0.03125,0 0,9.51562 -1.4375,0 0,-11.42187 2.078125,0 z m 14.359374,2.95312 q 1.671875,0 2.484375,0.65625 0.8125,0.64063 0.890625,1.9375 l -1.359375,0 0,-0.0156 q -0.0625,-0.65625 -0.578125,-1.01563 -0.515625,-0.35937 -1.34375,-0.35937 -0.8125,0 -1.296875,0.28125 -0.46875,0.26562 -0.46875,0.76562 0,0.45313 0.421875,0.75 0.421875,0.28125 1.265625,0.46875 l 1.28125,0.28125 q 1.203125,0.26563 1.828125,0.82813 0.625,0.54687 0.625,1.46875 0,1.21875 -0.953125,1.92187 -0.9375,0.70313 -2.578125,0.70313 -1.578125,0 -2.515625,-0.71875 -0.921875,-0.71875 -0.984375,-2.09375 l 1.359375,0 q 0.03125,0.76562 0.609375,1.1875 0.59375,0.40625 1.609375,0.40625 0.984375,0 1.484375,-0.3125 0.515625,-0.3125 0.515625,-0.92188 0,-0.54687 -0.5,-0.875 -0.5,-0.32812 -2.0625,-0.64062 -1.5625,-0.29688 -2.203125,-0.85938 -0.640625,-0.5625 -0.640625,-1.48437 0,-1.09375 0.875,-1.71875 0.890625,-0.64063 2.234375,-0.64063 z"
       id="path3163"
       inkscape:connector-curvature="0"
       style="fill:#000000;fill-rule:nonzero" />
    <path
       d="m 155.00404,233.64853 0,0 c 0,-6.41011 5.19641,-11.60654 11.60652,-11.60654 l 98.8342,0 c 3.07822,0 6.0304,1.22283 8.20703,3.39948 2.17667,2.17665 3.39948,5.12881 3.39948,8.20706 l 0,46.42474 c 0,6.4101 -5.19641,11.60651 -11.60651,11.60651 l -98.8342,0 c -6.41011,0 -11.60652,-5.19641 -11.60652,-11.60651 z"
       id="path3165"
       inkscape:connector-curvature="0"
       style="fill:#cfe2f3;fill-rule:nonzero" />
    <path
       d="m 155.00404,233.64853 0,0 c 0,-6.41011 5.19641,-11.60654 11.60652,-11.60654 l 98.8342,0 c 3.07822,0 6.0304,1.22283 8.20703,3.39948 2.17667,2.17665 3.39948,5.12881 3.39948,8.20706 l 0,46.42474 c 0,6.4101 -5.19641,11.60651 -11.60651,11.60651 l -98.8342,0 c -6.41011,0 -11.60652,-5.19641 -11.60652,-11.60651 z"
       id="path3167"
       inkscape:connector-curvature="0"
       style="stroke:#000000;stroke-width:2;stroke-linecap:butt;stroke-linejoin:round" />
    <path
       d="m 201.50813,240.84526 0,1.28125 -5.98438,0 0,3.625 5.25,0 0,1.28125 -5.25,0 0,5.23437 -1.51562,0 0,-11.42187 7.5,0 z m 4.84375,2.95312 q 1.6875,0 2.39062,0.60938 0.71875,0.59375 0.71875,1.60937 0,4.29688 0,4.76563 0,0.46875 0.42188,0.46875 0.0937,0 0.20312,-0.0156 0.10938,-0.0312 0.21875,-0.0625 l 0,1.0625 q -0.1875,0.10938 -0.4375,0.17188 -0.25,0.0625 -0.53125,0.0625 -0.5625,0 -0.85937,-0.3125 -0.29688,-0.32813 -0.29688,-0.98438 -0.54687,0.64063 -1.28125,0.96875 -0.73437,0.32813 -1.64062,0.32813 -1.28125,0 -2.01563,-0.60938 -0.71875,-0.60937 -0.71875,-1.71875 0,-1.125 0.70313,-1.76562 0.71875,-0.65625 3.35937,-0.98438 0.89063,-0.125 1.20313,-0.34375 0.3125,-0.23437 0.3125,-0.6875 0,-0.6875 -0.4375,-1.01562 -0.4375,-0.34375 -1.40625,-0.34375 -1,0 -1.51563,0.39062 -0.5,0.375 -0.53125,1.17188 l -1.35937,0 q 0.0625,-1.375 0.96875,-2.0625 0.90625,-0.70313 2.53125,-0.70313 z m -2.39063,6.23438 q 0,0.57812 0.42188,0.90625 0.42187,0.3125 1.1875,0.3125 1.14062,0 1.82812,-0.5625 0.6875,-0.57813 0.6875,-1.28125 l 0,-1.42188 q -0.34375,0.25 -0.89062,0.34375 -0.54688,0.0781 -1.45313,0.20313 -0.90625,0.125 -1.34375,0.48437 -0.4375,0.35938 -0.4375,1.01563 z m 11.59375,-6.23438 q 0.90625,0 1.46875,0.375 0.57813,0.35938 0.79688,1.03125 0.42187,-0.65625 1.09375,-1.03125 0.6875,-0.375 1.51562,-0.375 1.39063,0 2.0625,0.64063 0.67188,0.625 0.67188,1.70312 l 0,6.125 -1.35938,0 0,-5.48437 q 0,-0.89063 -0.375,-1.32813 -0.375,-0.45312 -1.21875,-0.45312 -1.01562,0 -1.59375,0.59375 -0.5625,0.59375 -0.5625,1.46875 l 0,5.20312 -1.375,0 0,-5.48437 q 0,-0.89063 -0.375,-1.32813 -0.375,-0.45312 -1.17187,-0.45312 -0.64063,0 -1.14063,0.3125 -0.5,0.3125 -0.78125,0.85937 -0.28125,0.53125 -0.28125,0.90625 l 0,5.1875 -1.35937,0 0,-8.28125 1.28125,0 0,1.21875 0.0312,0 q 0.46875,-0.70312 1.125,-1.04687 0.67187,-0.35938 1.54687,-0.35938 z m 11.10157,-2.95312 0,1.65625 -1.35938,0 0,-1.65625 1.35938,0 z m 0,3.14062 0,8.28125 -1.35938,0 0,-8.28125 1.35938,0 z m 3.55468,-3.14062 0,11.42187 -1.35937,0 0,-11.42187 1.35937,0 z m 2.75782,3.14062 2.40625,6.76563 0.0312,0 2.32812,-6.76563 1.4375,0 -3.51562,9.17188 q -0.54688,1.42187 -1.0625,1.92187 -0.51563,0.5 -1.42188,0.5 -0.25,0 -0.48437,-0.0312 -0.23438,-0.0312 -0.45313,-0.10937 l 0,-1.25 q 0.1875,0.0625 0.39063,0.125 0.20312,0.0625 0.40625,0.0625 0.82812,0 1.15625,-0.82813 0.32812,-0.82812 0.51562,-1.32812 l -3.28125,-8.23438 1.54688,0 z"
       id="path3169"
       inkscape:connector-curvature="0"
       style="fill:#000000;fill-rule:nonzero" />
    <path
       d="m 179.96516,261.01715 4.46875,11.42188 -1.6875,0 -1.23438,-3.4375 -4.84375,0 -1.28125,3.4375 -1.5625,0 4.46875,-11.42188 1.67188,0 z m -0.875,1.375 -1.9375,5.32813 3.875,0 -1.90625,-5.32813 -0.0312,0 z m 8.99219,1.57813 q 1.67187,0 2.48437,0.65625 0.8125,0.64062 0.89063,1.9375 l -1.35938,0 0,-0.0156 q -0.0625,-0.65625 -0.57812,-1.01562 -0.51563,-0.35938 -1.34375,-0.35938 -0.8125,0 -1.29688,0.28125 -0.46875,0.26563 -0.46875,0.76563 0,0.45312 0.42188,0.75 0.42187,0.28125 1.26562,0.46875 l 1.28125,0.28125 q 1.20313,0.26562 1.82813,0.82812 0.625,0.54688 0.625,1.46875 0,1.21875 -0.95313,1.92188 -0.9375,0.70312 -2.57812,0.70312 -1.57813,0 -2.51563,-0.71875 -0.92187,-0.71875 -0.98437,-2.09375 l 1.35937,0 q 0.0312,0.76563 0.60938,1.1875 0.59375,0.40625 1.60937,0.40625 0.98438,0 1.48438,-0.3125 0.51562,-0.3125 0.51562,-0.92187 0,-0.54688 -0.5,-0.875 -0.5,-0.32813 -2.0625,-0.64063 -1.5625,-0.29687 -2.20312,-0.85937 -0.64063,-0.5625 -0.64063,-1.48438 0,-1.09375 0.875,-1.71875 0.89063,-0.64062 2.23438,-0.64062 z m 8,0 q 1.67187,0 2.48437,0.65625 0.8125,0.64062 0.89063,1.9375 l -1.35938,0 0,-0.0156 q -0.0625,-0.65625 -0.57812,-1.01562 -0.51563,-0.35938 -1.34375,-0.35938 -0.8125,0 -1.29688,0.28125 -0.46875,0.26563 -0.46875,0.76563 0,0.45312 0.42188,0.75 0.42187,0.28125 1.26562,0.46875 l 1.28125,0.28125 q 1.20313,0.26562 1.82813,0.82812 0.625,0.54688 0.625,1.46875 0,1.21875 -0.95313,1.92188 -0.9375,0.70312 -2.57812,0.70312 -1.57813,0 -2.51563,-0.71875 -0.92187,-0.71875 -0.98437,-2.09375 l 1.35937,0 q 0.0312,0.76563 0.60938,1.1875 0.59375,0.40625 1.60937,0.40625 0.98438,0 1.48438,-0.3125 0.51562,-0.3125 0.51562,-0.92187 0,-0.54688 -0.5,-0.875 -0.5,-0.32813 -2.0625,-0.64063 -1.5625,-0.29687 -2.20312,-0.85937 -0.64063,-0.5625 -0.64063,-1.48438 0,-1.09375 0.875,-1.71875 0.89063,-0.64062 2.23438,-0.64062 z m 6.6875,-2.95313 0,1.65625 -1.35938,0 0,-1.65625 1.35938,0 z m 0,3.14063 0,8.28125 -1.35938,0 0,-8.28125 1.35938,0 z m 6.11718,-0.1875 q 1.5,0 2.17188,0.76562 0.67187,0.76563 0.67187,2.1875 l 0,5.51563 -1.35937,0 0,-5.65625 q 0,-0.70313 -0.45313,-1.15625 -0.4375,-0.45313 -1.23437,-0.45313 -1.15625,0 -1.79688,0.70313 -0.64062,0.70312 -0.64062,1.82812 l 0,4.73438 -1.35938,0 0,-8.28125 1.28125,0 0,1.3125 0.0312,0 q 0.45313,-0.76563 1.10938,-1.125 0.65625,-0.375 1.57812,-0.375 z m 8.25782,0 q 0.875,0 1.5,0.375 0.64062,0.375 0.98437,1 l 0.0156,0 0,-1.1875 1.26562,0 0,7.65625 q 0,1.95312 -0.9375,2.96875 -0.9375,1.01562 -2.89062,1.01562 -1.42188,0 -2.39063,-0.625 -0.96875,-0.625 -1.03125,-1.79687 l 1.35938,0 q 0.0312,0.625 0.67187,0.98437 0.64063,0.35938 1.46875,0.35938 1.20313,0 1.84375,-0.79688 0.64063,-0.79687 0.64063,-2.375 l 0,-0.51562 -0.0312,0 q -0.32813,0.6875 -1.01563,1.09375 -0.6875,0.40625 -1.57812,0.40625 -1.67188,0 -2.6875,-1.15625 -1,-1.15625 -1,-3.03125 0,-1.90625 1,-3.14063 1.01562,-1.23437 2.8125,-1.23437 z m -2.375,4.20312 q 0,1.48438 0.60937,2.32813 0.625,0.82812 1.73438,0.82812 1.125,0 1.78125,-0.85937 0.67187,-0.875 0.67187,-2.34375 0,-1.32813 -0.625,-2.14063 -0.60937,-0.8125 -1.73437,-0.8125 -1.14063,0 -1.79688,0.82813 -0.64062,0.8125 -0.64062,2.17187 z m 12.1875,-4.20312 q 0.90625,0 1.46875,0.375 0.57812,0.35937 0.79687,1.03125 0.42188,-0.65625 1.09375,-1.03125 0.6875,-0.375 1.51563,-0.375 1.39062,0 2.0625,0.64062 0.67187,0.625 0.67187,1.70313 l 0,6.125 -1.35937,0 0,-5.48438 q 0,-0.89062 -0.375,-1.32812 -0.375,-0.45313 -1.21875,-0.45313 -1.01563,0 -1.59375,0.59375 -0.5625,0.59375 -0.5625,1.46875 l 0,5.20313 -1.375,0 0,-5.48438 q 0,-0.89062 -0.375,-1.32812 -0.375,-0.45313 -1.17188,-0.45313 -0.64062,0 -1.14062,0.3125 -0.5,0.3125 -0.78125,0.85938 -0.28125,0.53125 -0.28125,0.90625 l 0,5.1875 -1.35938,0 0,-8.28125 1.28125,0 0,1.21875 0.0312,0 q 0.46875,-0.70313 1.125,-1.04688 0.67188,-0.35937 1.54688,-0.35937 z m 13.10156,0 q 1.78125,0 2.76562,1.28125 0.98438,1.28125 0.98438,3.29687 l 0,0.15625 -6.20313,0 0,0.10938 q 0,1.17187 0.6875,1.89062 0.6875,0.71875 1.89063,0.71875 0.90625,0 1.4375,-0.42187 0.54687,-0.42188 0.70312,-1.1875 l 1.34375,0 q -0.26562,1.375 -1.20312,2.10937 -0.92188,0.71875 -2.32813,0.71875 -1.29687,0 -2.20312,-0.59375 -0.90625,-0.59375 -1.34375,-1.64062 -0.42188,-1.0625 -0.42188,-2.15625 0,-1.82813 1.09375,-3.04688 1.10938,-1.23437 2.79688,-1.23437 z m -2.45313,3.53125 4.75,0 q -0.0625,-1 -0.73437,-1.65625 -0.65625,-0.67188 -1.65625,-0.67188 -0.9375,0 -1.60938,0.64063 -0.65625,0.625 -0.75,1.6875 z m 11.60938,-3.53125 q 1.5,0 2.17187,0.76562 0.67188,0.76563 0.67188,2.1875 l 0,5.51563 -1.35938,0 0,-5.65625 q 0,-0.70313 -0.45312,-1.15625 -0.4375,-0.45313 -1.23438,-0.45313 -1.15625,0 -1.79687,0.70313 -0.64063,0.70312 -0.64063,1.82812 l 0,4.73438 -1.35937,0 0,-8.28125 1.28125,0 0,1.3125 0.0312,0 q 0.45312,-0.76563 1.10937,-1.125 0.65625,-0.375 1.57813,-0.375 z m 6.78905,-2.28125 0,2.46875 1.64062,0 0,1.20312 -1.64062,0 0,5.1875 q 0,0.60938 0.40625,0.65625 0.40625,0.0312 0.85937,0.0312 l 0.375,0 0,1.20313 -1.125,0 q -1.10936,0 -1.49998,-0.39063 -0.375,-0.40625 -0.375,-1.34375 l 0,-5.34375 -1.42188,0 0,-1.20312 1.42188,0 0,-2.46875 1.35936,0 z"
       id="path3171"
       inkscape:connector-curvature="0"
       style="fill:#000000;fill-rule:nonzero" />
    <path
       d="m 277.05127,256.8609 43.49081,0"
       id="path3173"
       inkscape:connector-curvature="0"
       style="fill:#000000;fill-opacity:0;fill-rule:nonzero" />
    <path
       d="m 277.05127,256.8609 36.63666,0"
       id="path3175"
       inkscape:connector-curvature="0"
       style="stroke:#000000;stroke-width:2;stroke-linecap:butt;stroke-linejoin:round" />
    <path
       d="m 313.68793,256.8609 -2.24918,2.24915 6.17954,-2.24915 -6.17954,-2.24918 z"
       id="path3177"
       inkscape:connector-curvature="0"
       style="fill:#000000;fill-rule:evenodd;stroke:#000000;stroke-width:2;stroke-linecap:butt" />
    <path
       d="m 821.56836,319.50906 c 50.34338,17.32208 50.34338,-17.32205 100.6814,-17.32205 l 0,-90.04344 -100.6814,0 z m 8.29492,-107.36549 0,-11.67357 99.99378,0 0,90.60828 c -3.80091,0 -7.6073,0.62759 -7.6073,0.62759 l 0,-79.5623 z m 7.79675,-11.67357 0,-11.39116 100.86011,0 0,90.32585 c -4.33154,0 -8.66308,0.47071 -8.66308,0.47071 l 0,-79.4054 z"
       id="path3179"
       inkscape:connector-curvature="0"
       style="fill:#cfe2f3;fill-rule:nonzero" />
    <path
       d="m 821.56836,212.14357 100.6814,0 0,90.04344 c -50.33801,0 -50.33801,34.64413 -100.6814,17.32205 z m 8.29492,0 0,-11.67357 99.99378,0 0,90.60828 c -3.80091,0 -7.6073,0.62759 -7.6073,0.62759 M 837.66004,200.47 l 0,-11.39115 100.86011,0 0,90.32585 c -4.33155,0 -8.66309,0.4707 -8.66309,0.4707"
       id="path3181"
       inkscape:connector-curvature="0"
       style="fill:#000000;fill-opacity:0;fill-rule:nonzero" />
    <path
       d="m 821.56836,212.14357 100.6814,0 0,90.04344 c -50.33801,0 -50.33801,34.64413 -100.6814,17.32205 z m 8.29492,0 0,-11.67357 99.99378,0 0,90.60828 c -3.80091,0 -7.6073,0.62759 -7.6073,0.62759 M 837.66004,200.47 l 0,-11.39115 100.86011,0 0,90.32585 c -4.33155,0 -8.66309,0.4707 -8.66309,0.4707"
       id="path3183"
       inkscape:connector-curvature="0"
       style="stroke:#000000;stroke-width:2;stroke-linecap:butt;stroke-linejoin:round" />
    <path
       d="m 821.56836,319.50906 c 50.34338,17.32208 50.34338,-17.32205 100.6814,-17.32205 l 0,-10.48114 c 0,0 3.8064,-0.6276 7.6073,-0.6276 l 0,-11.20288 c 0,0 4.33154,-0.4707 8.66309,-0.4707 l 0,-90.32585 -100.86011,0 0,11.39116 -7.79676,0 0,11.67357 -8.29492,0 z"
       id="path3185"
       inkscape:connector-curvature="0"
       style="fill:#000000;fill-opacity:0;fill-rule:nonzero" />
    <path
       d="m 843.71765,249.8107 q 1.57813,0 2.5,0.85937 0.9375,0.84375 0.9375,2.51563 0,1.67187 -0.9375,2.53125 -0.92187,0.84375 -2.39062,0.84375 l -3.67188,0 0,4.67187 -1.51562,0 0,-11.42187 5.07812,0 z m -0.42187,5.46875 q 1.09375,0 1.71875,-0.51563 0.625,-0.51562 0.625,-1.57812 0,-1.0625 -0.625,-1.57813 -0.60938,-0.51562 -1.8125,-0.51562 l -3.04688,0 0,4.1875 3.14063,0 z m 9.60156,-2.51563 q 0.0469,0 0.0781,0 0.0469,0 0.10938,0 l 0,1.4375 q -1.53125,0 -2.26563,0.8125 -0.71875,0.8125 -0.71875,2.51563 l 0,3.70312 -1.35937,0 0,-8.28125 1.28125,0 0,1.75 0.0312,0 q 0.46875,-0.98437 1.17187,-1.45312 0.70313,-0.48438 1.67188,-0.48438 z m 4.65625,0 q 1.78125,0 2.76562,1.28125 0.98438,1.28125 0.98438,3.29688 l 0,0.15625 -6.20313,0 0,0.10937 q 0,1.17188 0.6875,1.89063 0.6875,0.71875 1.89063,0.71875 0.90625,0 1.4375,-0.42188 0.54687,-0.42187 0.70312,-1.1875 l 1.34375,0 q -0.26562,1.375 -1.20312,2.10938 -0.92188,0.71875 -2.32813,0.71875 -1.29687,0 -2.20312,-0.59375 -0.90625,-0.59375 -1.34375,-1.64063 -0.42188,-1.0625 -0.42188,-2.15625 0,-1.82812 1.09375,-3.04687 1.10938,-1.23438 2.79688,-1.23438 z m -2.45313,3.53125 4.75,0 q -0.0625,-1 -0.73437,-1.65625 -0.65625,-0.67187 -1.65625,-0.67187 -0.9375,0 -1.60938,0.64062 -0.65625,0.625 -0.75,1.6875 z m 15,-6.48437 0,11.42187 -1.35937,0 0,-1.125 -0.0312,0 q -0.32813,0.64063 -1.03125,0.98438 -0.6875,0.34375 -1.60938,0.34375 -1.73437,0 -2.78125,-1.20313 -1.03125,-1.21875 -1.03125,-3.15625 0,-1.92187 1,-3.10937 1.01563,-1.20313 2.76563,-1.20313 0.8125,0 1.54687,0.32813 0.73438,0.32812 1.14063,0.96875 l 0.0312,0 0,-4.25 1.35937,0 z m -6.40625,7.34375 q 0,1.34375 0.6875,2.20312 0.70313,0.85938 1.875,0.85938 1.20313,0 1.85938,-0.85938 0.67187,-0.85937 0.67187,-2.25 0,-1.42187 -0.6875,-2.28125 -0.67187,-0.85937 -1.9375,-0.85937 -1.17187,0 -1.82812,0.85937 -0.64063,0.84375 -0.64063,2.32813 z m 9.9375,-7.34375 0,1.65625 -1.35937,0 0,-1.65625 1.35937,0 z m 0,3.14062 0,8.28125 -1.35937,0 0,-8.28125 1.35937,0 z m 5.57032,-0.1875 q 1.51562,0 2.45312,0.71875 0.95313,0.71875 1.10938,2.125 l -1.40625,0 q -0.15625,-0.79687 -0.70313,-1.21875 -0.53125,-0.42187 -1.34375,-0.42187 -1.26562,0 -1.92187,0.84375 -0.65625,0.84375 -0.65625,2.39062 0,1.375 0.64062,2.20313 0.65625,0.8125 1.78125,0.8125 0.98438,0 1.5625,-0.53125 0.57813,-0.53125 0.70313,-1.48438 l 1.39062,0 q -0.21875,1.54688 -1.15625,2.39063 -0.9375,0.84375 -2.48437,0.84375 -1.8125,0 -2.84375,-1.14063 -1.03125,-1.14062 -1.03125,-3.09375 0,-2.03125 1.04687,-3.23437 1.04688,-1.20313 2.85938,-1.20313 z m 7.03125,-2.28125 0,2.46875 1.64062,0 0,1.20313 -1.64062,0 0,5.1875 q 0,0.60937 0.40625,0.65625 0.40625,0.0312 0.85937,0.0312 l 0.375,0 0,1.20312 -1.125,0 q -1.10937,0 -1.5,-0.39062 -0.375,-0.40625 -0.375,-1.34375 l 0,-5.34375 -1.42187,0 0,-1.20313 1.42187,0 0,-2.46875 1.35938,0 z m 6.58593,2.28125 q 1.78125,0 2.76563,1.28125 0.98437,1.28125 0.98437,3.29688 l 0,0.15625 -6.20312,0 0,0.10937 q 0,1.17188 0.6875,1.89063 0.6875,0.71875 1.89062,0.71875 0.90625,0 1.4375,-0.42188 0.54688,-0.42187 0.70313,-1.1875 l 1.34375,0 q -0.26563,1.375 -1.20313,2.10938 -0.92187,0.71875 -2.32812,0.71875 -1.29688,0 -2.20313,-0.59375 -0.90625,-0.59375 -1.34375,-1.64063 -0.42187,-1.0625 -0.42187,-2.15625 0,-1.82812 1.09375,-3.04687 1.10937,-1.23438 2.79687,-1.23438 z m -2.45312,3.53125 4.75,0 q -0.0625,-1 -0.73438,-1.65625 -0.65625,-0.67187 -1.65625,-0.67187 -0.9375,0 -1.60937,0.64062 -0.65625,0.625 -0.75,1.6875 z m 15,-6.48437 0,11.42187 -1.35938,0 0,-1.125 -0.0312,0 q -0.32812,0.64063 -1.03125,0.98438 -0.6875,0.34375 -1.60937,0.34375 -1.73438,0 -2.78125,-1.20313 -1.03125,-1.21875 -1.03125,-3.15625 0,-1.92187 1,-3.10937 1.01562,-1.20313 2.76562,-1.20313 0.8125,0 1.54688,0.32813 0.73437,0.32812 1.14062,0.96875 l 0.0312,0 0,-4.25 1.35938,0 z m -6.40625,7.34375 q 0,1.34375 0.6875,2.20312 0.70312,0.85938 1.875,0.85938 1.20312,0 1.85937,-0.85938 0.67188,-0.85937 0.67188,-2.25 0,-1.42187 -0.6875,-2.28125 -0.67188,-0.85937 -1.9375,-0.85937 -1.17188,0 -1.82813,0.85937 -0.64062,0.84375 -0.64062,2.32813 z"
       id="path3187"
       inkscape:connector-curvature="0"
       style="fill:#000000;fill-rule:nonzero" />
    <path
       d="m 842.71765,272.9357 q 1.875,0 2.9375,1.21875 1.07813,1.20312 1.07813,3.125 0,1.92187 -1.09375,3.125 -1.09375,1.20312 -2.92188,1.20312 -1.79687,0 -2.90625,-1.17187 -1.10937,-1.1875 -1.10937,-3.15625 0,-1.96875 1.07812,-3.15625 1.09375,-1.1875 2.9375,-1.1875 z m -2.57812,4.34375 q 0,1.42187 0.71875,2.26562 0.73437,0.84375 1.85937,0.84375 1.125,0 1.84375,-0.84375 0.73438,-0.85937 0.73438,-2.26562 0,-1.42188 -0.73438,-2.28125 -0.71875,-0.85938 -1.85937,-0.85938 -1.09375,0 -1.82813,0.84375 -0.73437,0.84375 -0.73437,2.29688 z m 12.3125,-4.34375 q 0.0469,0 0.0781,0 0.0469,0 0.10938,0 l 0,1.4375 q -1.53125,0 -2.26563,0.8125 -0.71875,0.8125 -0.71875,2.51562 l 0,3.70313 -1.35937,0 0,-8.28125 1.28125,0 0,1.75 0.0312,0 q 0.46875,-0.98438 1.17187,-1.45313 0.70313,-0.48437 1.67188,-0.48437 z m 3.10937,-2.28125 0,2.46875 1.64063,0 0,1.20312 -1.64063,0 0,5.1875 q 0,0.60938 0.40625,0.65625 0.40625,0.0312 0.85938,0.0312 l 0.375,0 0,1.20313 -1.125,0 q -1.10938,0 -1.5,-0.39063 -0.375,-0.40625 -0.375,-1.34375 l 0,-5.34375 -1.42188,0 0,-1.20312 1.42188,0 0,-2.46875 1.35937,0 z m 4.50781,-0.67188 0,4.35938 0.0312,0 q 0.29688,-0.65625 1,-1.03125 0.71875,-0.375 1.60938,-0.375 1.5,0 2.17187,0.76562 0.67188,0.76563 0.67188,2.1875 l 0,5.51563 -1.35938,0 0,-5.65625 q 0,-0.70313 -0.45312,-1.15625 -0.4375,-0.45313 -1.23438,-0.45313 -1.15625,0 -1.79687,0.70313 -0.64063,0.70312 -0.64063,1.82812 l 0,4.73438 -1.35937,0 0,-11.42188 1.35937,0 z m 11.10157,2.95313 q 1.875,0 2.9375,1.21875 1.07812,1.20312 1.07812,3.125 0,1.92187 -1.09375,3.125 -1.09375,1.20312 -2.92187,1.20312 -1.79688,0 -2.90625,-1.17187 -1.10938,-1.1875 -1.10938,-3.15625 0,-1.96875 1.07813,-3.15625 1.09375,-1.1875 2.9375,-1.1875 z m -2.57813,4.34375 q 0,1.42187 0.71875,2.26562 0.73438,0.84375 1.85938,0.84375 1.125,0 1.84375,-0.84375 0.73437,-0.85937 0.73437,-2.26562 0,-1.42188 -0.73437,-2.28125 -0.71875,-0.85938 -1.85938,-0.85938 -1.09375,0 -1.82812,0.84375 -0.73438,0.84375 -0.73438,2.29688 z m 9.64063,-7.29688 0,11.42188 -1.35938,0 0,-11.42188 1.35938,0 z m 5.67968,2.95313 q 1.875,0 2.9375,1.21875 1.07813,1.20312 1.07813,3.125 0,1.92187 -1.09375,3.125 -1.09375,1.20312 -2.92188,1.20312 -1.79687,0 -2.90625,-1.17187 -1.10937,-1.1875 -1.10937,-3.15625 0,-1.96875 1.07812,-3.15625 1.09375,-1.1875 2.9375,-1.1875 z m -2.57812,4.34375 q 0,1.42187 0.71875,2.26562 0.73437,0.84375 1.85937,0.84375 1.125,0 1.84375,-0.84375 0.73438,-0.85937 0.73438,-2.26562 0,-1.42188 -0.73438,-2.28125 -0.71875,-0.85938 -1.85937,-0.85938 -1.09375,0 -1.82813,0.84375 -0.73437,0.84375 -0.73437,2.29688 z m 11.5625,-4.34375 q 0.875,0 1.5,0.375 0.64062,0.375 0.98437,1 l 0.0156,0 0,-1.1875 1.26562,0 0,7.65625 q 0,1.95312 -0.9375,2.96875 -0.9375,1.01562 -2.89062,1.01562 -1.42188,0 -2.39063,-0.625 -0.96875,-0.625 -1.03125,-1.79687 l 1.35938,0 q 0.0312,0.625 0.67187,0.98437 0.64063,0.35938 1.46875,0.35938 1.20313,0 1.84375,-0.79688 0.64063,-0.79687 0.64063,-2.375 l 0,-0.51562 -0.0312,0 q -0.32813,0.6875 -1.01563,1.09375 -0.6875,0.40625 -1.57812,0.40625 -1.67188,0 -2.6875,-1.15625 -1,-1.15625 -1,-3.03125 0,-1.90625 1,-3.14063 1.01562,-1.23437 2.8125,-1.23437 z m -2.375,4.20312 q 0,1.48438 0.60937,2.32813 0.625,0.82812 1.73438,0.82812 1.125,0 1.78125,-0.85937 0.67187,-0.875 0.67187,-2.34375 0,-1.32813 -0.625,-2.14063 -0.60937,-0.8125 -1.73437,-0.8125 -1.14063,0 -1.79688,0.82813 -0.64062,0.8125 -0.64062,2.17187 z m 10.95312,-4.20312 q 1.67188,0 2.48438,0.65625 0.8125,0.64062 0.89062,1.9375 l -1.35937,0 0,-0.0156 q -0.0625,-0.65625 -0.57813,-1.01562 -0.51562,-0.35938 -1.34375,-0.35938 -0.8125,0 -1.29687,0.28125 -0.46875,0.26563 -0.46875,0.76563 0,0.45312 0.42187,0.75 0.42188,0.28125 1.26563,0.46875 l 1.28125,0.28125 q 1.20312,0.26562 1.82812,0.82812 0.625,0.54688 0.625,1.46875 0,1.21875 -0.95312,1.92188 -0.9375,0.70312 -2.57813,0.70312 -1.57812,0 -2.51562,-0.71875 -0.92188,-0.71875 -0.98438,-2.09375 l 1.35938,0 q 0.0312,0.76563 0.60937,1.1875 0.59375,0.40625 1.60938,0.40625 0.98437,0 1.48437,-0.3125 0.51563,-0.3125 0.51563,-0.92187 0,-0.54688 -0.5,-0.875 -0.5,-0.32813 -2.0625,-0.64063 -1.5625,-0.29687 -2.20313,-0.85937 -0.64062,-0.5625 -0.64062,-1.48438 0,-1.09375 0.875,-1.71875 0.89062,-0.64062 2.23437,-0.64062 z"
       id="path3189"
       inkscape:connector-curvature="0"
       style="fill:#000000;fill-rule:nonzero" />
    <path
       d="m 320.54208,233.64853 0,0 c 0,-6.41011 5.19644,-11.60654 11.60654,-11.60654 l 98.8342,0 c 3.07824,0 6.03039,1.22283 8.20706,3.39948 2.17663,2.17665 3.39944,5.12881 3.39944,8.20706 l 0,46.42474 c 0,6.4101 -5.19641,11.60651 -11.6065,11.60651 l -98.8342,0 c -6.4101,0 -11.60654,-5.19641 -11.60654,-11.60651 z"
       id="path3191"
       inkscape:connector-curvature="0"
       style="fill:#cfe2f3;fill-rule:nonzero" />
    <path
       d="m 320.54208,233.64853 0,0 c 0,-6.41011 5.19644,-11.60654 11.60654,-11.60654 l 98.8342,0 c 3.07824,0 6.03039,1.22283 8.20706,3.39948 2.17663,2.17665 3.39944,5.12881 3.39944,8.20706 l 0,46.42474 c 0,6.4101 -5.19641,11.60651 -11.6065,11.60651 l -98.8342,0 c -6.4101,0 -11.60654,-5.19641 -11.60654,-11.60651 z"
       id="path3193"
       inkscape:connector-curvature="0"
       style="stroke:#000000;stroke-width:2;stroke-linecap:butt;stroke-linejoin:round" />
    <path
       d="m 356.6165,230.75932 3.60937,9.59375 3.60938,-9.59375 2.07812,0 0,11.42187 -1.4375,0 0,-9.51562 -0.0312,0 -3.5625,9.51562 -1.29687,0 -3.57813,-9.51562 -0.0312,0 0,9.51562 -1.4375,0 0,-11.42187 2.07813,0 z m 12.96875,3.14062 0,5.64063 q 0,0.70312 0.4375,1.17187 0.45312,0.45313 1.25,0.45313 1.17187,0 1.79687,-0.70313 0.64063,-0.71875 0.64063,-1.82812 l 0,-4.73438 1.35937,0 0,8.28125 -1.28125,0 0,-1.3125 -0.0312,0 q -0.45312,0.78125 -1.14062,1.15625 -0.67188,0.35938 -1.54688,0.35938 -1.45312,0 -2.15625,-0.75 -0.6875,-0.75 -0.6875,-2.21875 l 0,-5.51563 1.35938,0 z m 8.97656,-3.14062 0,11.42187 -1.35937,0 0,-11.42187 1.35937,0 z m 4.00781,0.67187 0,2.46875 1.64063,0 0,1.20313 -1.64063,0 0,5.1875 q 0,0.60937 0.40625,0.65625 0.40625,0.0312 0.85938,0.0312 l 0.375,0 0,1.20312 -1.125,0 q -1.10938,0 -1.5,-0.39062 -0.375,-0.40625 -0.375,-1.34375 l 0,-5.34375 -1.42188,0 0,-1.20313 1.42188,0 0,-2.46875 1.35937,0 z m 4.58594,-0.67187 0,1.65625 -1.35937,0 0,-1.65625 1.35937,0 z m 0,3.14062 0,8.28125 -1.35937,0 0,-8.28125 1.35937,0 z m 6.19531,-0.1875 q 1.76563,0 2.78125,1.21875 1.03125,1.21875 1.03125,3.14063 0,1.92187 -1.01562,3.125 -1.01563,1.1875 -2.76563,1.1875 -0.76562,0 -1.51562,-0.32813 -0.73438,-0.32812 -1.15625,-0.98437 l -0.0312,0 0,4.28125 -1.35938,0 0,-11.45313 1.35938,0 0,1.125 0.0312,0 q 0.3125,-0.64062 1,-0.96875 0.70312,-0.34375 1.64062,-0.34375 z m -2.71875,4.32813 q 0,1.4375 0.6875,2.28125 0.70313,0.84375 1.92188,0.84375 1.17187,0 1.8125,-0.84375 0.65625,-0.84375 0.65625,-2.34375 0,-1.34375 -0.6875,-2.20313 -0.67188,-0.85937 -1.875,-0.85937 -1.20313,0 -1.85938,0.875 -0.65625,0.875 -0.65625,2.25 z m 9.5625,-7.28125 0,11.42187 -1.35937,0 0,-11.42187 1.35937,0 z m 5.55469,2.95312 q 1.78125,0 2.76563,1.28125 0.98437,1.28125 0.98437,3.29688 l 0,0.15625 -6.20312,0 0,0.10937 q 0,1.17188 0.6875,1.89063 0.6875,0.71875 1.89062,0.71875 0.90625,0 1.4375,-0.42188 0.54688,-0.42187 0.70313,-1.1875 l 1.34375,0 q -0.26563,1.375 -1.20313,2.10938 -0.92187,0.71875 -2.32812,0.71875 -1.29688,0 -2.20313,-0.59375 -0.90625,-0.59375 -1.34375,-1.64063 -0.42187,-1.0625 -0.42187,-2.15625 0,-1.82812 1.09375,-3.04687 1.10937,-1.23438 2.79687,-1.23438 z m -2.45312,3.53125 4.75,0 q -0.0625,-1 -0.73438,-1.65625 -0.65625,-0.67187 -1.65625,-0.67187 -0.9375,0 -1.60937,0.64062 -0.65625,0.625 -0.75,1.6875 z"
       id="path3195"
       inkscape:connector-curvature="0"
       style="fill:#000000;fill-rule:nonzero" />
    <path
       d="m 350.64774,250.64995 q 1.90625,0 3.01562,0.92187 1.125,0.92188 1.1875,2.70313 l -1.4375,0 q -0.125,-1.17188 -0.84375,-1.75 -0.70312,-0.59375 -1.98437,-0.59375 -1.21875,0 -1.89063,0.51562 -0.67187,0.5 -0.67187,1.4375 0,0.67188 0.5625,1.10938 0.57812,0.42187 3.10937,0.92187 1.82813,0.37502 2.73438,1.15627 0.90625,0.76563 0.90625,2.14063 0,1.59375 -1.3125,2.51562 -1.29688,0.90625 -3.15625,0.90625 -2.07813,0 -3.39063,-1.04687 -1.3125,-1.04688 -1.32812,-3 l 1.4375,0 q 0.0156,1.3125 0.9375,2.03125 0.92187,0.71875 2.39062,0.71875 1.39063,0 2.14063,-0.53125 0.76562,-0.53125 0.76562,-1.54688 0,-0.8125 -0.70312,-1.29687 -0.6875,-0.5 -2.51563,-0.84375 -2.4375,-0.46875 -3.26562,-1.18752 -0.82813,-0.73438 -0.82813,-1.9375 0,-1.53125 1.15625,-2.4375 1.17188,-0.90625 2.98438,-0.90625 z m 9.74219,3.23437 q 1.78125,0 2.76562,1.28125 0.98438,1.28127 0.98438,3.2969 l 0,0.15625 -6.20313,0 0,0.10937 q 0,1.17188 0.6875,1.89063 0.6875,0.71875 1.89063,0.71875 0.90625,0 1.4375,-0.42188 0.54687,-0.42187 0.70312,-1.1875 l 1.34375,0 q -0.26562,1.375 -1.20312,2.10938 -0.92188,0.71875 -2.32813,0.71875 -1.29687,0 -2.20312,-0.59375 -0.90625,-0.59375 -1.34375,-1.64063 -0.42188,-1.0625 -0.42188,-2.15625 0,-1.82812 1.09375,-3.04689 1.10938,-1.23438 2.79688,-1.23438 z m -2.45313,3.53127 4.75,0 q -0.0625,-1 -0.73437,-1.65627 -0.65625,-0.67187 -1.65625,-0.67187 -0.9375,0 -1.60938,0.64062 -0.65625,0.62502 -0.75,1.68752 z m 10.92188,-3.53127 q 0.8125,0 1.54687,0.32813 0.73438,0.32812 1.14063,0.96875 l 0.0312,0 0,-1.10938 1.35937,0 0,11.45314 -1.35937,0 0,-4.29687 -0.0312,0 q -0.32813,0.64062 -1.03125,0.98437 -0.6875,0.34375 -1.60938,0.34375 -1.73437,0 -2.78125,-1.20312 -1.03125,-1.21875 -1.03125,-3.15625 0,-1.92188 1.01563,-3.10939 1.01562,-1.20313 2.75,-1.20313 z m -2.32813,4.39065 q 0,1.34375 0.6875,2.20312 0.70313,0.85938 1.875,0.85938 1.20313,0 1.85938,-0.85938 0.67187,-0.85937 0.67187,-2.25 0,-1.42187 -0.6875,-2.28127 -0.67187,-0.85937 -1.9375,-0.85937 -1.17187,0 -1.82812,0.85937 -0.64063,0.84377 -0.64063,2.32815 z m 9.85938,-4.20315 0,5.64065 q 0,0.70312 0.4375,1.17187 0.45312,0.45313 1.25,0.45313 1.17187,0 1.79687,-0.70313 0.64063,-0.71875 0.64063,-1.82812 l 0,-4.7344 1.35937,0 0,8.28127 -1.28125,0 0,-1.3125 -0.0312,0 q -0.45312,0.78125 -1.14062,1.15625 -0.67188,0.35937 -1.54688,0.35937 -1.45312,0 -2.15625,-0.75 -0.6875,-0.75 -0.6875,-2.21875 l 0,-5.51564 1.35938,0 z m 10.97656,-0.1875 q 1.78125,0 2.76562,1.28125 0.98438,1.28127 0.98438,3.2969 l 0,0.15625 -6.20313,0 0,0.10937 q 0,1.17188 0.6875,1.89063 0.6875,0.71875 1.89063,0.71875 0.90625,0 1.4375,-0.42188 0.54687,-0.42187 0.70312,-1.1875 l 1.34375,0 q -0.26562,1.375 -1.20312,2.10938 -0.92188,0.71875 -2.32813,0.71875 -1.29687,0 -2.20312,-0.59375 -0.90625,-0.59375 -1.34375,-1.64063 -0.42188,-1.0625 -0.42188,-2.15625 0,-1.82812 1.09375,-3.04689 1.10938,-1.23438 2.79688,-1.23438 z m -2.45313,3.53127 4.75,0 q -0.0625,-1 -0.73437,-1.65627 -0.65625,-0.67187 -1.65625,-0.67187 -0.9375,0 -1.60938,0.64062 -0.65625,0.62502 -0.75,1.68752 z m 11.60938,-3.53127 q 1.5,0 2.17187,0.76563 0.67188,0.76562 0.67188,2.18752 l 0,5.51562 -1.35938,0 0,-5.65625 q 0,-0.70314 -0.45312,-1.15627 -0.4375,-0.45312 -1.23438,-0.45312 -1.15625,0 -1.79687,0.70312 -0.64063,0.70315 -0.64063,1.82815 l 0,4.73437 -1.35937,0 0,-8.28126 1.28125,0 0,1.3125 0.0312,0 q 0.45312,-0.76563 1.10937,-1.125 0.65625,-0.375 1.57813,-0.375 z m 8.35156,0 q 1.51563,0 2.45313,0.71875 0.95312,0.71875 1.10937,2.12502 l -1.40625,0 q -0.15625,-0.79689 -0.70312,-1.21877 -0.53125,-0.42187 -1.34375,-0.42187 -1.26563,0 -1.92188,0.84375 -0.65625,0.84377 -0.65625,2.39064 0,1.375 0.64063,2.20313 0.65625,0.8125 1.78125,0.8125 0.98437,0 1.5625,-0.53125 0.57812,-0.53125 0.70312,-1.48438 l 1.39063,0 q -0.21875,1.54688 -1.15625,2.39063 -0.9375,0.84375 -2.48438,0.84375 -1.8125,0 -2.84375,-1.14063 -1.03125,-1.14062 -1.03125,-3.09375 0,-2.03125 1.04688,-3.23439 1.04687,-1.20313 2.85937,-1.20313 z m 8.57813,0 q 1.78125,0 2.76562,1.28125 0.98438,1.28127 0.98438,3.2969 l 0,0.15625 -6.20313,0 0,0.10937 q 0,1.17188 0.6875,1.89063 0.6875,0.71875 1.89063,0.71875 0.90625,0 1.4375,-0.42188 0.54687,-0.42187 0.70312,-1.1875 l 1.34375,0 q -0.26562,1.375 -1.20312,2.10938 -0.92188,0.71875 -2.32813,0.71875 -1.29687,0 -2.20312,-0.59375 -0.90625,-0.59375 -1.34375,-1.64063 -0.42188,-1.0625 -0.42188,-2.15625 0,-1.82812 1.09375,-3.04689 1.10938,-1.23438 2.79688,-1.23438 z m -2.45313,3.53127 4.75,0 q -0.0625,-1 -0.73437,-1.65627 -0.65625,-0.67187 -1.65625,-0.67187 -0.9375,0 -1.60938,0.64062 -0.65625,0.62502 -0.75,1.68752 z"
       id="path3197"
       inkscape:connector-curvature="0"
       style="fill:#000000;fill-rule:nonzero" />
    <path
       d="m 351.72586,271.1031 4.46875,11.42187 -1.6875,0 -1.23438,-3.4375 -4.84375,0 -1.28125,3.4375 -1.5625,0 4.46875,-11.42187 1.67188,0 z m -0.875,1.375 -1.9375,5.32812 3.875,0 -1.90625,-5.32812 -0.0312,0 z m 7.67969,-1.375 0,11.42187 -1.35938,0 0,-11.42187 1.35938,0 z m 3.55468,0 0,1.65625 -1.35937,0 0,-1.65625 1.35937,0 z m 0,3.14062 0,8.28125 -1.35937,0 0,-8.28125 1.35937,0 z m 5.47657,-0.1875 q 0.875,0 1.5,0.375 0.64062,0.375 0.98437,1 l 0.0156,0 0,-1.1875 1.26562,0 0,7.65625 q 0,1.95313 -0.9375,2.96875 -0.9375,1.01563 -2.89062,1.01563 -1.42188,0 -2.39063,-0.625 -0.96875,-0.625 -1.03125,-1.79688 l 1.35938,0 q 0.0312,0.625 0.67187,0.98438 0.64063,0.35937 1.46875,0.35937 1.20313,0 1.84375,-0.79687 0.64063,-0.79688 0.64063,-2.375 l 0,-0.51563 -0.0312,0 q -0.32813,0.6875 -1.01563,1.09375 -0.6875,0.40625 -1.57812,0.40625 -1.67188,0 -2.6875,-1.15625 -1,-1.15625 -1,-3.03125 0,-1.90625 1,-3.14062 1.01562,-1.23438 2.8125,-1.23438 z m -2.375,4.20313 q 0,1.48437 0.60937,2.32812 0.625,0.82813 1.73438,0.82813 1.125,0 1.78125,-0.85938 0.67187,-0.875 0.67187,-2.34375 0,-1.32812 -0.625,-2.14062 -0.60937,-0.8125 -1.73437,-0.8125 -1.14063,0 -1.79688,0.82812 -0.64062,0.8125 -0.64062,2.17188 z m 12.20312,-4.20313 q 1.5,0 2.17188,0.76563 0.67187,0.76562 0.67187,2.1875 l 0,5.51562 -1.35937,0 0,-5.65625 q 0,-0.70312 -0.45313,-1.15625 -0.4375,-0.45312 -1.23437,-0.45312 -1.15625,0 -1.79688,0.70312 -0.64062,0.70313 -0.64062,1.82813 l 0,4.73437 -1.35938,0 0,-8.28125 1.28125,0 0,1.3125 0.0312,0 q 0.45313,-0.76562 1.10938,-1.125 0.65625,-0.375 1.57812,-0.375 z m 8.88281,0 q 0.90625,0 1.46875,0.375 0.57813,0.35938 0.79688,1.03125 0.42187,-0.65625 1.09375,-1.03125 0.6875,-0.375 1.51562,-0.375 1.39063,0 2.0625,0.64063 0.67188,0.625 0.67188,1.70312 l 0,6.125 -1.35938,0 0,-5.48437 q 0,-0.89063 -0.375,-1.32813 -0.375,-0.45312 -1.21875,-0.45312 -1.01562,0 -1.59375,0.59375 -0.5625,0.59375 -0.5625,1.46875 l 0,5.20312 -1.375,0 0,-5.48437 q 0,-0.89063 -0.375,-1.32813 -0.375,-0.45312 -1.17187,-0.45312 -0.64063,0 -1.14063,0.3125 -0.5,0.3125 -0.78125,0.85937 -0.28125,0.53125 -0.28125,0.90625 l 0,5.1875 -1.35937,0 0,-8.28125 1.28125,0 0,1.21875 0.0312,0 q 0.46875,-0.70312 1.125,-1.04687 0.67187,-0.35938 1.54687,-0.35938 z m 13.10157,0 q 1.78125,0 2.76562,1.28125 0.98438,1.28125 0.98438,3.29688 l 0,0.15625 -6.20313,0 0,0.10937 q 0,1.17188 0.6875,1.89063 0.6875,0.71875 1.89063,0.71875 0.90625,0 1.4375,-0.42188 0.54687,-0.42187 0.70312,-1.1875 l 1.34375,0 q -0.26562,1.375 -1.20312,2.10938 -0.92188,0.71875 -2.32813,0.71875 -1.29687,0 -2.20312,-0.59375 -0.90625,-0.59375 -1.34375,-1.64063 -0.42188,-1.0625 -0.42188,-2.15625 0,-1.82812 1.09375,-3.04687 1.10938,-1.23438 2.79688,-1.23438 z m -2.45313,3.53125 4.75,0 q -0.0625,-1 -0.73437,-1.65625 -0.65625,-0.67187 -1.65625,-0.67187 -0.9375,0 -1.60938,0.64062 -0.65625,0.625 -0.75,1.6875 z m 11.60938,-3.53125 q 1.5,0 2.17187,0.76563 0.67188,0.76562 0.67188,2.1875 l 0,5.51562 -1.35938,0 0,-5.65625 q 0,-0.70312 -0.45312,-1.15625 -0.4375,-0.45312 -1.23438,-0.45312 -1.15625,0 -1.79687,0.70312 -0.64063,0.70313 -0.64063,1.82813 l 0,4.73437 -1.35937,0 0,-8.28125 1.28125,0 0,1.3125 0.0312,0 q 0.45312,-0.76562 1.10937,-1.125 0.65625,-0.375 1.57813,-0.375 z m 6.78906,-2.28125 0,2.46875 1.64062,0 0,1.20313 -1.64062,0 0,5.1875 q 0,0.60937 0.40625,0.65625 0.40625,0.0312 0.85937,0.0312 l 0.375,0 0,1.20312 -1.125,0 q -1.10937,0 -1.5,-0.39062 -0.375,-0.40625 -0.375,-1.34375 l 0,-5.34375 -1.42187,0 0,-1.20313 1.42187,0 0,-2.46875 1.35938,0 z"
       id="path3199"
       inkscape:connector-curvature="0"
       style="fill:#000000;fill-rule:nonzero" />
    <path
       d="m 484.23502,233.64853 0,0 c 0,-6.41011 5.19641,-11.60654 11.60654,-11.60654 l 98.83417,0 c 3.07824,0 6.03039,1.22283 8.20703,3.39948 2.17669,2.17665 3.39947,5.12881 3.39947,8.20706 l 0,46.42474 c 0,6.4101 -5.19641,11.60651 -11.6065,11.60651 l -98.83417,0 c -6.41013,0 -11.60654,-5.19641 -11.60654,-11.60651 z"
       id="path3201"
       inkscape:connector-curvature="0"
       style="fill:#cfe2f3;fill-rule:nonzero" />
    <path
       d="m 484.23502,233.64853 0,0 c 0,-6.41011 5.19641,-11.60654 11.60654,-11.60654 l 98.83417,0 c 3.07824,0 6.03039,1.22283 8.20703,3.39948 2.17669,2.17665 3.39947,5.12881 3.39947,8.20706 l 0,46.42474 c 0,6.4101 -5.19641,11.60651 -11.6065,11.60651 l -98.83417,0 c -6.41013,0 -11.60654,-5.19641 -11.60654,-11.60651 z"
       id="path3203"
       inkscape:connector-curvature="0"
       style="stroke:#000000;stroke-width:2;stroke-linecap:butt;stroke-linejoin:round" />
    <path
       d="m 505.3524,240.84526 q 1.57812,0 2.5,0.85937 0.9375,0.84375 0.9375,2.51563 0,1.67187 -0.9375,2.53125 -0.92188,0.84375 -2.39063,0.84375 l -3.67187,0 0,4.67187 -1.51563,0 0,-11.42187 5.07813,0 z m -0.42188,5.46875 q 1.09375,0 1.71875,-0.51563 0.625,-0.51562 0.625,-1.57812 0,-1.0625 -0.625,-1.57813 -0.60937,-0.51562 -1.8125,-0.51562 l -3.04687,0 0,4.1875 3.14062,0 z m 6.85157,-5.46875 0,4.35937 0.0312,0 q 0.29684,-0.65625 0.99997,-1.03125 0.71875,-0.375 1.60937,-0.375 1.5,0 2.17188,0.76563 0.67187,0.76562 0.67187,2.1875 l 0,5.51562 -1.35937,0 0,-5.65625 q 0,-0.70312 -0.45313,-1.15625 -0.4375,-0.45312 -1.23437,-0.45312 -1.15625,0 -1.79688,0.70312 -0.64059,0.70313 -0.64059,1.82813 l 0,4.73437 -1.35938,0 0,-11.42187 1.35938,0 z m 8.17965,3.14062 2.40625,6.76563 0.0312,0 2.32813,-6.76563 1.4375,0 -3.51563,9.17188 q -0.54687,1.42187 -1.0625,1.92187 -0.51562,0.5 -1.42187,0.5 -0.25,0 -0.48438,-0.0312 -0.23437,-0.0312 -0.45312,-0.10937 l 0,-1.25 q 0.1875,0.0625 0.39062,0.125 0.20313,0.0625 0.40625,0.0625 0.82813,0 1.15625,-0.82813 0.32813,-0.82812 0.51563,-1.32812 l -3.28125,-8.23438 1.54687,0 z m 8.79688,-3.14062 0,11.42187 -1.35938,0 0,-11.42187 1.35938,0 z m 5.67969,2.95312 q 1.875,0 2.9375,1.21875 1.07812,1.20313 1.07812,3.125 0,1.92188 -1.09375,3.125 -1.09375,1.20313 -2.92187,1.20313 -1.79688,0 -2.90625,-1.17188 -1.10938,-1.1875 -1.10938,-3.15625 0,-1.96875 1.07813,-3.15625 1.09375,-1.1875 2.9375,-1.1875 z m -2.57813,4.34375 q 0,1.42188 0.71875,2.26563 0.73438,0.84375 1.85938,0.84375 1.125,0 1.84375,-0.84375 0.73437,-0.85938 0.73437,-2.26563 0,-1.42187 -0.73437,-2.28125 -0.71875,-0.85937 -1.85938,-0.85937 -1.09375,0 -1.82812,0.84375 -0.73438,0.84375 -0.73438,2.29687 z m 11.5625,-4.34375 q 0.875,0 1.5,0.375 0.64063,0.375 0.98438,1 l 0.0156,0 0,-1.1875 1.26563,0 0,7.65625 q 0,1.95313 -0.9375,2.96875 -0.9375,1.01563 -2.89063,1.01563 -1.42187,0 -2.39062,-0.625 -0.96875,-0.625 -1.03125,-1.79688 l 1.35937,0 q 0.0312,0.625 0.67188,0.98438 0.64062,0.35937 1.46875,0.35937 1.20312,0 1.84375,-0.79687 0.64062,-0.79688 0.64062,-2.375 l 0,-0.51563 -0.0312,0 q -0.32812,0.6875 -1.01562,1.09375 -0.6875,0.40625 -1.57813,0.40625 -1.67187,0 -2.6875,-1.15625 -1,-1.15625 -1,-3.03125 0,-1.90625 1,-3.14062 1.01563,-1.23438 2.8125,-1.23438 z m -2.375,4.20313 q 0,1.48437 0.60938,2.32812 0.625,0.82813 1.73437,0.82813 1.125,0 1.78125,-0.85938 0.67188,-0.875 0.67188,-2.34375 0,-1.32812 -0.625,-2.14062 -0.60938,-0.8125 -1.73438,-0.8125 -1.14062,0 -1.79687,0.82812 -0.64063,0.8125 -0.64063,2.17188 z m 11.64063,-4.20313 q 1.78125,0 2.76562,1.28125 0.98438,1.28125 0.98438,3.29688 l 0,0.15625 -6.20313,0 0,0.10937 q 0,1.17188 0.6875,1.89063 0.6875,0.71875 1.89063,0.71875 0.90625,0 1.4375,-0.42188 0.54687,-0.42187 0.70312,-1.1875 l 1.34375,0 q -0.26562,1.375 -1.20312,2.10938 -0.92188,0.71875 -2.32813,0.71875 -1.29687,0 -2.20312,-0.59375 -0.90625,-0.59375 -1.34375,-1.64063 -0.42188,-1.0625 -0.42188,-2.15625 0,-1.82812 1.09375,-3.04687 1.10938,-1.23438 2.79688,-1.23438 z m -2.45313,3.53125 4.75,0 q -0.0625,-1 -0.73437,-1.65625 -0.65625,-0.67187 -1.65625,-0.67187 -0.9375,0 -1.60938,0.64062 -0.65625,0.625 -0.75,1.6875 z m 11.60938,-3.53125 q 1.5,0 2.17187,0.76563 0.67188,0.76562 0.67188,2.1875 l 0,5.51562 -1.35938,0 0,-5.65625 q 0,-0.70312 -0.45312,-1.15625 -0.4375,-0.45312 -1.23438,-0.45312 -1.15625,0 -1.79687,0.70312 -0.64063,0.70313 -0.64063,1.82813 l 0,4.73437 -1.35937,0 0,-8.28125 1.28125,0 0,1.3125 0.0312,0 q 0.45312,-0.76562 1.10937,-1.125 0.65625,-0.375 1.57813,-0.375 z m 8.33593,0 q 1.78125,0 2.76563,1.28125 0.98437,1.28125 0.98437,3.29688 l 0,0.15625 -6.20312,0 0,0.10937 q 0,1.17188 0.6875,1.89063 0.6875,0.71875 1.89062,0.71875 0.90625,0 1.4375,-0.42188 0.54688,-0.42187 0.70313,-1.1875 l 1.34375,0 q -0.26563,1.375 -1.20313,2.10938 -0.92187,0.71875 -2.32812,0.71875 -1.29688,0 -2.20313,-0.59375 -0.90625,-0.59375 -1.34375,-1.64063 -0.42187,-1.0625 -0.42187,-2.15625 0,-1.82812 1.09375,-3.04687 1.10937,-1.23438 2.79687,-1.23438 z m -2.45312,3.53125 4.75,0 q -0.0625,-1 -0.73438,-1.65625 -0.65625,-0.67187 -1.65625,-0.67187 -0.9375,0 -1.60937,0.64062 -0.65625,0.625 -0.75,1.6875 z m 9.5,-5.8125 0,2.46875 1.64062,0 0,1.20313 -1.64062,0 0,5.1875 q 0,0.60937 0.40625,0.65625 0.40625,0.0312 0.85937,0.0312 l 0.375,0 0,1.20312 -1.125,0 q -1.10937,0 -1.5,-0.39062 -0.375,-0.40625 -0.375,-1.34375 l 0,-5.34375 -1.42187,0 0,-1.20313 1.42187,0 0,-2.46875 1.35938,0 z m 4.58594,-0.67187 0,1.65625 -1.35938,0 0,-1.65625 1.35938,0 z m 0,3.14062 0,8.28125 -1.35938,0 0,-8.28125 1.35938,0 z m 5.57031,-0.1875 q 1.51562,0 2.45312,0.71875 0.95313,0.71875 1.10938,2.125 l -1.40625,0 q -0.15625,-0.79687 -0.70313,-1.21875 -0.53125,-0.42187 -1.34375,-0.42187 -1.26562,0 -1.92187,0.84375 -0.65625,0.84375 -0.65625,2.39062 0,1.375 0.64062,2.20313 0.65625,0.8125 1.78125,0.8125 0.98438,0 1.5625,-0.53125 0.57813,-0.53125 0.70313,-1.48438 l 1.39062,0 q -0.21875,1.54688 -1.15625,2.39063 -0.9375,0.84375 -2.48437,0.84375 -1.8125,0 -2.84375,-1.14063 -1.03125,-1.14062 -1.03125,-3.09375 0,-2.03125 1.04687,-3.23437 1.04688,-1.20313 2.85938,-1.20313 z"
       id="path3205"
       inkscape:connector-curvature="0"
       style="fill:#000000;fill-rule:nonzero" />
    <path
       d="m 538.5789,261.01715 0,1.28125 -3.8125,0 0,10.14063 -1.51563,0 0,-10.14063 -3.8125,0 0,-1.28125 9.14063,0 z m 5.15625,2.95313 q 0.0469,0 0.0781,0 0.0469,0 0.10938,0 l 0,1.4375 q -1.53125,0 -2.26563,0.8125 -0.71875,0.8125 -0.71875,2.51562 l 0,3.70313 -1.35937,0 0,-8.28125 1.28125,0 0,1.75 0.0312,0 q 0.46875,-0.98438 1.17187,-1.45313 0.70313,-0.48437 1.67188,-0.48437 z m 4.65625,0 q 1.78125,0 2.76562,1.28125 0.98438,1.28125 0.98438,3.29687 l 0,0.15625 -6.20313,0 0,0.10938 q 0,1.17187 0.6875,1.89062 0.6875,0.71875 1.89063,0.71875 0.90625,0 1.4375,-0.42187 0.54687,-0.42188 0.70312,-1.1875 l 1.34375,0 q -0.26562,1.375 -1.20312,2.10937 -0.92188,0.71875 -2.32813,0.71875 -1.29687,0 -2.20312,-0.59375 -0.90625,-0.59375 -1.34375,-1.64062 -0.42188,-1.0625 -0.42188,-2.15625 0,-1.82813 1.09375,-3.04688 1.10938,-1.23437 2.79688,-1.23437 z m -2.45313,3.53125 4.75,0 q -0.0625,-1 -0.73437,-1.65625 -0.65625,-0.67188 -1.65625,-0.67188 -0.9375,0 -1.60938,0.64063 -0.65625,0.625 -0.75,1.6875 z m 11.04688,-3.53125 q 1.78125,0 2.76562,1.28125 0.98438,1.28125 0.98438,3.29687 l 0,0.15625 -6.20313,0 0,0.10938 q 0,1.17187 0.6875,1.89062 0.6875,0.71875 1.89063,0.71875 0.90625,0 1.4375,-0.42187 0.54687,-0.42188 0.70312,-1.1875 l 1.34375,0 q -0.26562,1.375 -1.20312,2.10937 -0.92188,0.71875 -2.32813,0.71875 -1.29687,0 -2.20312,-0.59375 -0.90625,-0.59375 -1.34375,-1.64062 -0.42188,-1.0625 -0.42188,-2.15625 0,-1.82813 1.09375,-3.04688 1.10938,-1.23437 2.79688,-1.23437 z m -2.45313,3.53125 4.75,0 q -0.0625,-1 -0.73437,-1.65625 -0.65625,-0.67188 -1.65625,-0.67188 -0.9375,0 -1.60938,0.64063 -0.65625,0.625 -0.75,1.6875 z"
       id="path3207"
       inkscape:connector-curvature="0"
       style="fill:#000000;fill-rule:nonzero" />
    <path
       d="m 655.3277,233.64853 0,0 c 0,-6.41011 5.19641,-11.60654 11.60657,-11.60654 l 98.83417,0 c 3.07824,0 6.03039,1.22283 8.20703,3.39948 2.17663,2.17665 3.39947,5.12881 3.39947,8.20706 l 0,46.42474 c 0,6.4101 -5.19641,11.60651 -11.6065,11.60651 l -98.83417,0 c -6.41016,0 -11.60657,-5.19641 -11.60657,-11.60651 z"
       id="path3209"
       inkscape:connector-curvature="0"
       style="fill:#cfe2f3;fill-rule:nonzero" />
    <path
       d="m 655.3277,233.64853 0,0 c 0,-6.41011 5.19641,-11.60654 11.60657,-11.60654 l 98.83417,0 c 3.07824,0 6.03039,1.22283 8.20703,3.39948 2.17663,2.17665 3.39947,5.12881 3.39947,8.20706 l 0,46.42474 c 0,6.4101 -5.19641,11.60651 -11.6065,11.60651 l -98.83417,0 c -6.41016,0 -11.60657,-5.19641 -11.60657,-11.60651 z"
       id="path3211"
       inkscape:connector-curvature="0"
       style="stroke:#000000;stroke-width:2;stroke-linecap:butt;stroke-linejoin:round" />
    <path
       d="m 687.1599,240.56401 q 1.67187,0 2.90625,0.78125 1.23437,0.76562 1.90625,2.15625 0.67187,1.39062 0.67187,3.04687 0,1.67188 -0.67187,3.0625 -0.67188,1.39063 -1.92188,2.17188 -1.23437,0.76562 -2.89062,0.76562 -1.64063,0 -2.89063,-0.76562 -1.23437,-0.78125 -1.90625,-2.15625 -0.67187,-1.39063 -0.67187,-3.07813 0,-2.59375 1.48437,-4.28125 1.5,-1.70312 3.98438,-1.70312 z m -3.95313,5.98437 q 0,1.28125 0.46875,2.39063 0.46875,1.09375 1.35938,1.70312 0.90625,0.60938 2.125,0.60938 1.84375,0 2.89062,-1.3125 1.0625,-1.32813 1.0625,-3.39063 0,-2.03125 -1.04687,-3.35937 -1.04688,-1.34375 -2.92188,-1.34375 -1.82812,0 -2.89062,1.34375 -1.04688,1.34375 -1.04688,3.35937 z m 15.17188,-2.75 q 0.0469,0 0.0781,0 0.0469,0 0.10938,0 l 0,1.4375 q -1.53125,0 -2.26563,0.8125 -0.71875,0.8125 -0.71875,2.51563 l 0,3.70312 -1.35937,0 0,-8.28125 1.28125,0 0,1.75 0.0312,0 q 0.46875,-0.98437 1.17187,-1.45312 0.70313,-0.48438 1.67188,-0.48438 z m 3.10937,-2.28125 0,2.46875 1.64063,0 0,1.20313 -1.64063,0 0,5.1875 q 0,0.60937 0.40625,0.65625 0.40625,0.0312 0.85938,0.0312 l 0.375,0 0,1.20312 -1.125,0 q -1.10938,0 -1.5,-0.39062 -0.375,-0.40625 -0.375,-1.34375 l 0,-5.34375 -1.42188,0 0,-1.20313 1.42188,0 0,-2.46875 1.35937,0 z m 4.50782,-0.67187 0,4.35937 0.0312,0 q 0.29687,-0.65625 1,-1.03125 0.71875,-0.375 1.60937,-0.375 1.5,0 2.17188,0.76563 0.67187,0.76562 0.67187,2.1875 l 0,5.51562 -1.35937,0 0,-5.65625 q 0,-0.70312 -0.45313,-1.15625 -0.4375,-0.45312 -1.23437,-0.45312 -1.15625,0 -1.79688,0.70312 -0.64062,0.70313 -0.64062,1.82813 l 0,4.73437 -1.35938,0 0,-11.42187 1.35938,0 z m 11.10156,2.95312 q 1.875,0 2.9375,1.21875 1.07812,1.20313 1.07812,3.125 0,1.92188 -1.09375,3.125 -1.09375,1.20313 -2.92187,1.20313 -1.79688,0 -2.90625,-1.17188 -1.10938,-1.1875 -1.10938,-3.15625 0,-1.96875 1.07813,-3.15625 1.09375,-1.1875 2.9375,-1.1875 z m -2.57813,4.34375 q 0,1.42188 0.71875,2.26563 0.73438,0.84375 1.85938,0.84375 1.125,0 1.84375,-0.84375 0.73437,-0.85938 0.73437,-2.26563 0,-1.42187 -0.73437,-2.28125 -0.71875,-0.85937 -1.85938,-0.85937 -1.09375,0 -1.82812,0.84375 -0.73438,0.84375 -0.73438,2.29687 z m 9.64063,-7.29687 0,11.42187 -1.35938,0 0,-11.42187 1.35938,0 z m 5.67969,2.95312 q 1.875,0 2.9375,1.21875 1.07812,1.20313 1.07812,3.125 0,1.92188 -1.09375,3.125 -1.09375,1.20313 -2.92187,1.20313 -1.79688,0 -2.90625,-1.17188 -1.10938,-1.1875 -1.10938,-3.15625 0,-1.96875 1.07813,-3.15625 1.09375,-1.1875 2.9375,-1.1875 z m -2.57813,4.34375 q 0,1.42188 0.71875,2.26563 0.73438,0.84375 1.85938,0.84375 1.125,0 1.84375,-0.84375 0.73437,-0.85938 0.73437,-2.26563 0,-1.42187 -0.73437,-2.28125 -0.71875,-0.85937 -1.85938,-0.85937 -1.09375,0 -1.82812,0.84375 -0.73438,0.84375 -0.73438,2.29687 z m 11.5625,-4.34375 q 0.875,0 1.5,0.375 0.64063,0.375 0.98438,1 l 0.0156,0 0,-1.1875 1.26563,0 0,7.65625 q 0,1.95313 -0.9375,2.96875 -0.9375,1.01563 -2.89063,1.01563 -1.42187,0 -2.39062,-0.625 -0.96875,-0.625 -1.03125,-1.79688 l 1.35937,0 q 0.0312,0.625 0.67188,0.98438 0.64062,0.35937 1.46875,0.35937 1.20312,0 1.84375,-0.79687 0.64062,-0.79688 0.64062,-2.375 l 0,-0.51563 -0.0312,0 q -0.32812,0.6875 -1.01562,1.09375 -0.6875,0.40625 -1.57813,0.40625 -1.67187,0 -2.6875,-1.15625 -1,-1.15625 -1,-3.03125 0,-1.90625 1,-3.14062 1.01563,-1.23438 2.8125,-1.23438 z m -2.375,4.20313 q 0,1.48437 0.60938,2.32812 0.625,0.82813 1.73437,0.82813 1.125,0 1.78125,-0.85938 0.67188,-0.875 0.67188,-2.34375 0,-1.32812 -0.625,-2.14062 -0.60938,-0.8125 -1.73438,-0.8125 -1.14062,0 -1.79687,0.82812 -0.64063,0.8125 -0.64063,2.17188 z m 8.84375,-4.01563 2.40625,6.76563 0.0312,0 2.32813,-6.76563 1.4375,0 -3.51563,9.17188 q -0.54687,1.42187 -1.0625,1.92187 -0.51562,0.5 -1.42187,0.5 -0.25,0 -0.48438,-0.0312 -0.23437,-0.0312 -0.45312,-0.10937 l 0,-1.25 q 0.1875,0.0625 0.39062,0.125 0.20313,0.0625 0.40625,0.0625 0.82813,0 1.15625,-0.82813 0.32813,-0.82812 0.51563,-1.32812 l -3.28125,-8.23438 1.54687,0 z"
       id="path3213"
       inkscape:connector-curvature="0"
       style="fill:#000000;fill-rule:nonzero" />
    <path
       d="m 704.68726,263.97028 q 1.51563,0 2.45313,0.71875 0.95312,0.71875 1.10937,2.125 l -1.40625,0 q -0.15625,-0.79688 -0.70312,-1.21875 -0.53125,-0.42188 -1.34375,-0.42188 -1.26563,0 -1.92188,0.84375 -0.65625,0.84375 -0.65625,2.39063 0,1.375 0.64063,2.20312 0.65625,0.8125 1.78125,0.8125 0.98437,0 1.5625,-0.53125 0.57812,-0.53125 0.70312,-1.48437 l 1.39063,0 q -0.21875,1.54687 -1.15625,2.39062 -0.9375,0.84375 -2.48438,0.84375 -1.8125,0 -2.84375,-1.14062 -1.03125,-1.14063 -1.03125,-3.09375 0,-2.03125 1.04688,-3.23438 1.04687,-1.20312 2.85937,-1.20312 z m 8.51563,0 q 1.6875,0 2.39062,0.60937 0.71875,0.59375 0.71875,1.60938 0,4.29687 0,4.76562 0,0.46875 0.42188,0.46875 0.0937,0 0.20312,-0.0156 0.10938,-0.0312 0.21875,-0.0625 l 0,1.0625 q -0.1875,0.10937 -0.4375,0.17187 -0.25,0.0625 -0.53125,0.0625 -0.5625,0 -0.85937,-0.3125 -0.29688,-0.32812 -0.29688,-0.98437 -0.54687,0.64062 -1.28125,0.96875 -0.73437,0.32812 -1.64062,0.32812 -1.28125,0 -2.01563,-0.60937 -0.71875,-0.60938 -0.71875,-1.71875 0,-1.125 0.70313,-1.76563 0.71875,-0.65625 3.35937,-0.98437 0.89063,-0.125 1.20313,-0.34375 0.3125,-0.23438 0.3125,-0.6875 0,-0.6875 -0.4375,-1.01563 -0.4375,-0.34375 -1.40625,-0.34375 -1,0 -1.51563,0.39063 -0.5,0.375 -0.53125,1.17187 l -1.35937,0 q 0.0625,-1.375 0.96875,-2.0625 0.90625,-0.70312 2.53125,-0.70312 z m -2.39063,6.23437 q 0,0.57813 0.42188,0.90625 0.42187,0.3125 1.1875,0.3125 1.14062,0 1.82812,-0.5625 0.6875,-0.57812 0.6875,-1.28125 l 0,-1.42187 q -0.34375,0.25 -0.89062,0.34375 -0.54688,0.0781 -1.45313,0.20312 -0.90625,0.125 -1.34375,0.48438 -0.4375,0.35937 -0.4375,1.01562 z m 9.04688,-9.1875 0,11.42188 -1.35938,0 0,-11.42188 1.35938,0 z m 3.55468,0 0,11.42188 -1.35937,0 0,-11.42188 1.35937,0 z m 4.86719,2.95313 q 1.67188,0 2.48438,0.65625 0.8125,0.64062 0.89062,1.9375 l -1.35937,0 0,-0.0156 q -0.0625,-0.65625 -0.57813,-1.01562 -0.51562,-0.35938 -1.34375,-0.35938 -0.8125,0 -1.29687,0.28125 -0.46875,0.26563 -0.46875,0.76563 0,0.45312 0.42187,0.75 0.42188,0.28125 1.26563,0.46875 l 1.28125,0.28125 q 1.20312,0.26562 1.82812,0.82812 0.625,0.54688 0.625,1.46875 0,1.21875 -0.95312,1.92188 -0.9375,0.70312 -2.57813,0.70312 -1.57812,0 -2.51562,-0.71875 -0.92188,-0.71875 -0.98438,-2.09375 l 1.35938,0 q 0.0312,0.76563 0.60937,1.1875 0.59375,0.40625 1.60938,0.40625 0.98437,0 1.48437,-0.3125 0.51563,-0.3125 0.51563,-0.92187 0,-0.54688 -0.5,-0.875 -0.5,-0.32813 -2.0625,-0.64063 -1.5625,-0.29687 -2.20313,-0.85937 -0.64062,-0.5625 -0.64062,-1.48438 0,-1.09375 0.875,-1.71875 0.89062,-0.64062 2.23437,-0.64062 z"
       id="path3215"
       inkscape:connector-curvature="0"
       style="fill:#000000;fill-rule:nonzero" />
    <path
       d="m 442.58932,256.8609 41.64569,0"
       id="path3217"
       inkscape:connector-curvature="0"
       style="fill:#000000;fill-opacity:0;fill-rule:nonzero" />
    <path
       d="m 442.58932,256.8609 34.7915,0"
       id="path3219"
       inkscape:connector-curvature="0"
       style="stroke:#000000;stroke-width:2;stroke-linecap:butt;stroke-linejoin:round" />
    <path
       d="m 477.38083,256.8609 -2.24918,2.24915 6.17954,-2.24915 -6.17954,-2.24918 z"
       id="path3221"
       inkscape:connector-curvature="0"
       style="fill:#000000;fill-rule:evenodd;stroke:#000000;stroke-width:2;stroke-linecap:butt" />
    <path
       d="m 606.2822,256.8609 49.04547,0"
       id="path3223"
       inkscape:connector-curvature="0"
       style="fill:#000000;fill-opacity:0;fill-rule:nonzero" />
    <path
       d="m 606.2822,256.8609 42.19134,0"
       id="path3225"
       inkscape:connector-curvature="0"
       style="stroke:#000000;stroke-width:2;stroke-linecap:butt;stroke-linejoin:round" />
    <path
       d="m 648.4736,256.8609 -2.24921,2.24915 6.17957,-2.24915 -6.17957,-2.24918 z"
       id="path3227"
       inkscape:connector-curvature="0"
       style="fill:#000000;fill-rule:evenodd;stroke:#000000;stroke-width:2;stroke-linecap:butt" />
    <path
       d="m 106.10761,168.55905 48.89643,88.30185"
       id="path3229"
       inkscape:connector-curvature="0"
       style="fill:#000000;fill-opacity:0;fill-rule:nonzero" />
    <path
       d="m 106.10761,168.55905 45.57606,82.30562"
       id="path3231"
       inkscape:connector-curvature="0"
       style="stroke:#000000;stroke-width:2;stroke-linecap:butt;stroke-linejoin:round" />
    <path
       d="m 151.68367,250.86465 -3.05721,-0.87807 4.9612,4.31647 -1.02591,-6.49561 z"
       id="path3233"
       inkscape:connector-curvature="0"
       style="fill:#000000;fill-rule:evenodd;stroke:#000000;stroke-width:2;stroke-linecap:butt" />
    <path
       d="m 777.37494,256.8609 44.19342,0"
       id="path3235"
       inkscape:connector-curvature="0"
       style="fill:#000000;fill-opacity:0;fill-rule:nonzero" />
    <path
       d="m 777.37494,256.8609 37.33923,0"
       id="path3237"
       inkscape:connector-curvature="0"
       style="stroke:#000000;stroke-width:2;stroke-linecap:butt;stroke-linejoin:round" />
    <path
       d="m 814.7142,256.8609 -2.24921,2.24915 6.17957,-2.24915 -6.17957,-2.24918 z"
       id="path3239"
       inkscape:connector-curvature="0"
       style="fill:#000000;fill-rule:evenodd;stroke:#000000;stroke-width:2;stroke-linecap:butt" />
    <path
       d="m 6.6430445,304.11285 0,0 c 0,6.86661 22.2659035,12.43307 49.7322845,12.43307 27.466385,0 49.732281,-5.56646 49.732281,-12.43307 l 0,94.28348 c 0,6.86658 -22.265896,12.43307 -49.732281,12.43307 -27.466381,0 -49.7322845,-5.56649 -49.7322845,-12.43307 z"
       id="path3241"
       inkscape:connector-curvature="0"
       style="fill:#cfe2f3;fill-rule:nonzero" />
    <path
       d="m 6.6430445,304.11285 0,0 c 0,-6.86658 22.2659035,-12.43308 49.7322845,-12.43308 27.466385,0 49.732281,5.5665 49.732281,12.43308 l 0,0 c 0,6.86661 -22.265896,12.43307 -49.732281,12.43307 -27.466381,0 -49.7322845,-5.56646 -49.7322845,-12.43307 z"
       id="path3243"
       inkscape:connector-curvature="0"
       style="fill:#e2edf7;fill-rule:nonzero" />
    <path
       d="m 106.10761,304.11285 0,0 c 0,6.86661 -22.2659,12.43307 -49.732285,12.43307 -27.466381,0 -49.732285,-5.56646 -49.732285,-12.43307 l 0,0 c 0,-6.86658 22.265903,-12.43308 49.732285,-12.43308 27.466385,0 49.732285,5.5665 49.732285,12.43308 l 0,94.28348 c 0,6.86658 -22.2659,12.43307 -49.732285,12.43307 -27.466381,0 -49.732285,-5.56649 -49.732285,-12.43307 l 0,-94.28348"
       id="path3245"
       inkscape:connector-curvature="0"
       style="fill:#000000;fill-opacity:0;fill-rule:nonzero" />
    <path
       stroke-miterlimit="8.0"
       d="m 106.10761,304.11285 0,0 c 0,6.86661 -22.2659,12.43307 -49.732285,12.43307 -27.466381,0 -49.732285,-5.56646 -49.732285,-12.43307 l 0,0 c 0,-6.86658 22.265903,-12.43308 49.732285,-12.43308 27.466385,0 49.732285,5.5665 49.732285,12.43308 l 0,94.28348 c 0,6.86658 -22.2659,12.43307 -49.732285,12.43307 -27.466381,0 -49.732285,-5.56649 -49.732285,-12.43307 l 0,-94.28348"
       id="path3247"
       inkscape:connector-curvature="0"
       style="stroke:#000000;stroke-width:2;stroke-linecap:butt;stroke-miterlimit:8" />
    <path
       d="m 43.097984,341.4555 6.015625,9.26562 0.03125,0 0,-9.26562 1.4375,0 0,11.42187 -1.671875,0 -5.96875,-9.17187 -0.03125,0 0,9.17187 -1.4375,0 0,-11.42187 1.625,0 z m 13.164062,2.95312 q 1.78125,0 2.765625,1.28125 0.984375,1.28125 0.984375,3.29688 l 0,0.15625 -6.203125,0 0,0.10937 q 0,1.17188 0.6875,1.89063 0.6875,0.71875 1.890625,0.71875 0.90625,0 1.4375,-0.42188 0.546875,-0.42187 0.703125,-1.1875 l 1.34375,0 q -0.265625,1.375 -1.203125,2.10938 -0.921875,0.71875 -2.328125,0.71875 -1.296875,0 -2.203125,-0.59375 -0.90625,-0.59375 -1.34375,-1.64063 -0.421875,-1.0625 -0.421875,-2.15625 0,-1.82812 1.09375,-3.04687 1.109375,-1.23438 2.796875,-1.23438 z m -2.453125,3.53125 4.75,0 q -0.0625,-1 -0.734375,-1.65625 -0.65625,-0.67187 -1.65625,-0.67187 -0.9375,0 -1.609375,0.64062 -0.65625,0.625 -0.75,1.6875 z m 8.359375,-3.34375 1.875,6.76563 0.03125,0 1.65625,-6.76563 1.484375,0 1.734375,6.73438 0.01563,0.0312 0.01563,0 1.859375,-6.76563 1.40625,0 -2.625,8.25 -0.01563,0.0312 -1.4375,0 -1.671875,-6.54687 -0.01563,-0.0312 -0.03125,0 -1.65625,6.57812 -1.46875,0 -2.65625,-8.28125 1.5,0 z"
       id="path3249"
       inkscape:connector-curvature="0"
       style="fill:#000000;fill-rule:nonzero" />
    <path
       d="m 32.875328,361.34613 q 1.90625,0 3.015625,0.92188 1.125,0.92187 1.1875,2.70312 l -1.4375,0 q -0.125,-1.17187 -0.84375,-1.75 -0.703125,-0.59375 -1.984375,-0.59375 -1.218748,0 -1.890623,0.51563 -0.671875,0.5 -0.671875,1.4375 0,0.67187 0.5625,1.10937 0.578125,0.42188 3.109373,0.92188 1.828125,0.375 2.734375,1.15625 0.90625,0.76562 0.90625,2.14062 0,1.59375 -1.3125,2.51563 -1.296875,0.90625 -3.15625,0.90625 -2.078123,0 -3.390623,-1.04688 -1.3125,-1.04687 -1.328125,-3 l 1.4375,0 q 0.01563,1.3125 0.9375,2.03125 0.921875,0.71875 2.390623,0.71875 1.390625,0 2.140625,-0.53125 0.765625,-0.53125 0.765625,-1.54687 0,-0.8125 -0.703125,-1.29688 -0.6875,-0.5 -2.515625,-0.84375 -2.437498,-0.46875 -3.265623,-1.1875 -0.828125,-0.73437 -0.828125,-1.9375 0,-1.53125 1.15625,-2.4375 1.171875,-0.90625 2.984373,-0.90625 z m 10.382813,3.23438 q 1.765625,0 2.78125,1.21875 1.03125,1.21875 1.03125,3.14062 0,1.92188 -1.015625,3.125 -1.015625,1.1875 -2.765625,1.1875 -0.765625,0 -1.515625,-0.32812 -0.734375,-0.32813 -1.15625,-0.98438 l -0.03125,0 0,4.28125 -1.359375,0 0,-11.45312 1.359375,0 0,1.125 0.03125,0 q 0.3125,-0.64063 1,-0.96875 0.703125,-0.34375 1.640625,-0.34375 z m -2.71875,4.32812 q 0,1.4375 0.6875,2.28125 0.703125,0.84375 1.921875,0.84375 1.171875,0 1.8125,-0.84375 0.65625,-0.84375 0.65625,-2.34375 0,-1.34375 -0.6875,-2.20312 -0.671875,-0.85938 -1.875,-0.85938 -1.203125,0 -1.859375,0.875 -0.65625,0.875 -0.65625,2.25 z m 11.5625,-4.32812 q 1.78125,0 2.765625,1.28125 0.984375,1.28125 0.984375,3.29687 l 0,0.15625 -6.203125,0 0,0.10938 q 0,1.17187 0.6875,1.89062 0.6875,0.71875 1.890625,0.71875 0.90625,0 1.4375,-0.42187 0.546875,-0.42188 0.703125,-1.1875 l 1.34375,0 q -0.265625,1.375 -1.203125,2.10937 -0.921875,0.71875 -2.328125,0.71875 -1.296875,0 -2.203125,-0.59375 -0.90625,-0.59375 -1.34375,-1.64062 -0.421875,-1.0625 -0.421875,-2.15625 0,-1.82813 1.09375,-3.04688 1.109375,-1.23437 2.796875,-1.23437 z m -2.453125,3.53125 4.75,0 q -0.0625,-1 -0.734375,-1.65625 -0.65625,-0.67188 -1.65625,-0.67188 -0.9375,0 -1.609375,0.64063 -0.65625,0.625 -0.75,1.6875 z m 11.0625,-3.53125 q 1.515625,0 2.453125,0.71875 0.953124,0.71875 1.109374,2.125 l -1.40625,0 q -0.15625,-0.79688 -0.703125,-1.21875 -0.53125,-0.42188 -1.34375,-0.42188 -1.265625,0 -1.921875,0.84375 -0.65625,0.84375 -0.65625,2.39063 0,1.375 0.640625,2.20312 0.65625,0.8125 1.78125,0.8125 0.984375,0 1.5625,-0.53125 0.578125,-0.53125 0.703125,-1.48437 l 1.390625,0 q -0.21875,1.54687 -1.15625,2.39062 -0.9375,0.84375 -2.484375,0.84375 -1.8125,0 -2.84375,-1.14062 -1.03125,-1.14063 -1.03125,-3.09375 0,-2.03125 1.046875,-3.23438 1.046875,-1.20312 2.859375,-1.20312 z m 6.578124,-2.95313 0,1.65625 -1.359375,0 0,-1.65625 1.359375,0 z m 0,3.14063 0,8.28125 -1.359375,0 0,-8.28125 1.359375,0 z m 5.554688,-0.1875 q 1.78125,0 2.765625,1.28125 0.984375,1.28125 0.984375,3.29687 l 0,0.15625 -6.203125,0 0,0.10938 q 0,1.17187 0.6875,1.89062 0.6875,0.71875 1.890625,0.71875 0.90625,0 1.4375,-0.42187 0.546875,-0.42188 0.703125,-1.1875 l 1.34375,0 q -0.265625,1.375 -1.203125,2.10937 -0.921875,0.71875 -2.328125,0.71875 -1.296875,0 -2.203125,-0.59375 -0.90625,-0.59375 -1.34375,-1.64062 -0.421875,-1.0625 -0.421875,-2.15625 0,-1.82813 1.09375,-3.04688 1.109375,-1.23437 2.796875,-1.23437 z m -2.453125,3.53125 4.75,0 q -0.0625,-1 -0.734375,-1.65625 -0.65625,-0.67188 -1.65625,-0.67188 -0.9375,0 -1.609375,0.64063 -0.65625,0.625 -0.75,1.6875 z m 10.359375,-3.53125 q 1.671875,0 2.484375,0.65625 0.8125,0.64062 0.890625,1.9375 l -1.359375,0 0,-0.0156 q -0.0625,-0.65625 -0.578125,-1.01562 -0.515625,-0.35938 -1.34375,-0.35938 -0.8125,0 -1.296875,0.28125 -0.46875,0.26563 -0.46875,0.76563 0,0.45312 0.421875,0.75 0.421875,0.28125 1.265625,0.46875 l 1.28125,0.28125 q 1.203125,0.26562 1.828125,0.82812 0.625,0.54688 0.625,1.46875 0,1.21875 -0.953125,1.92188 -0.9375,0.70312 -2.578125,0.70312 -1.578125,0 -2.515625,-0.71875 -0.921875,-0.71875 -0.984375,-2.09375 l 1.359375,0 q 0.03125,0.76563 0.609375,1.1875 0.59375,0.40625 1.609375,0.40625 0.984375,0 1.484375,-0.3125 0.515625,-0.3125 0.515625,-0.92187 0,-0.54688 -0.5,-0.875 -0.5,-0.32813 -2.0625,-0.64063 -1.5625,-0.29687 -2.203125,-0.85937 -0.640625,-0.5625 -0.640625,-1.48438 0,-1.09375 0.875,-1.71875 0.890625,-0.64062 2.234375,-0.64062 z"
       id="path3251"
       inkscape:connector-curvature="0"
       style="fill:#000000;fill-rule:nonzero" />
    <path
       d="m 106.10761,351.2546 48.89643,-94.39371"
       id="path3253"
       inkscape:connector-curvature="0"
       style="fill:#000000;fill-opacity:0;fill-rule:nonzero" />
    <path
       d="m 106.10761,351.2546 45.7438,-88.30762"
       id="path3255"
       inkscape:connector-curvature="0"
       style="stroke:#000000;stroke-width:2;stroke-linecap:butt;stroke-linejoin:round" />
    <path
       d="m 151.85141,262.947 0.9626,3.03165 0.8452,-6.52158 -4.83945,4.45255 z"
       id="path3257"
       inkscape:connector-curvature="0"
       style="fill:#000000;fill-rule:evenodd;stroke:#000000;stroke-width:2;stroke-linecap:butt" />
  </g>
</svg>
